<svg width="400" height="238.824" xmlns="http://www.w3.org/2000/svg"><g fill-rule="evenodd"><path d="M300.362 70.413c.007.366.447.9.609.738.089-.088-.013-.335-.226-.547-.212-.213-.385-.299-.383-.191m7.967 1.019c.376.124.886.409 1.135.634.249.225.452.298.452.163 0-.406-.592-.773-1.456-.902-.782-.116-.787-.112-.131.105m15.037 2.702c.291.296.571.439.621.319.051-.12-.104-.362-.344-.537-.69-.505-.858-.373-.277.218m10.206 2.668a.38.38 0 0 0 .379.378c.208 0 .335-.127.283-.283-.147-.443-.662-.517-.662-.095m3.957.717c.5.366.727.326.474-.084-.087-.14-.333-.255-.548-.255-.326 0-.314.056.074.339m-62.417.269c-.222.58.038.636.514.111.396-.438.398-.48.031-.48a.627.627 0 0 0-.545.369m-3.427 2.499c-.217.405-.182.478.23.478.327 0 .486-.157.486-.478 0-.263-.103-.478-.23-.478s-.346.215-.486.478m75.556.945c.33.528.562.462.347-.099-.078-.202-.254-.368-.39-.368-.157 0-.142.171.043.467m-78.424 1.655c0 .116-.215.268-.478.336-.263.069-.476.27-.474.446.002.211.064.233.179.065.097-.141.364-.326.594-.411.371-.136.606-.647.299-.647-.066 0-.12.095-.12.211m4.992 12.394c.155.295.457.537.672.537.214 0 .345-.028.29-.062a14.503 14.503 0 0 1-.672-.538l-.572-.475.282.538m77.385 1.143c-.11.578-.095.588.331.202.528-.478.576-.808.116-.808-.182 0-.383.273-.447.606m-55.137 2.122c0 .373.615.94.888.819.103-.045-.054-.32-.35-.611-.346-.341-.538-.415-.538-.208m51.613.05c0 .317.065.333.359.09.197-.164.358-.338.358-.388 0-.05-.161-.09-.358-.09-.197 0-.359.174-.359.388m-1.982 1.412c-.416.571-.317.766.208.407.316-.217.628-1.015.393-1.005-.095.004-.365.273-.601.598m-37.922-.001c0 .202.166.43.369.508.54.207.568.021.069-.455-.371-.354-.438-.362-.438-.053m6.129.955c.127.332.812.83 1.141.83.074 0-.1-.269-.385-.597-.582-.669-.97-.788-.756-.233m29.542.292c-.581.591-.412.723.278.219.24-.176.395-.418.344-.538-.051-.12-.331.024-.622.319m-2.995 1.144c-.108.564-.083.583.377.278.674-.448.777-.884.208-.884-.313 0-.508.202-.585.606m-21.848 2.441c-.082.23-.194.525-.25.657-.055.131.069.03.276-.225.207-.255.511-.549.675-.653.212-.135.175-.191-.127-.194-.234-.002-.493.185-.574.415m-6.656 10.828c-.087.14-.101.312-.03.382.171.172.637-.13.637-.412 0-.305-.413-.285-.607.03m43.857 3c0 .318.064.334.358.09.197-.163.358-.338.358-.387 0-.05-.161-.09-.358-.09-.197 0-.358.174-.358.387m-63.8 6.423c-.243.293-.227.358.09.358.214 0 .388-.161.388-.358 0-.198-.04-.359-.09-.359-.05 0-.224.161-.388.359"/><path d="M259.797 132.536c-.164.066-.299.326-.299.578 0 .419-.192.458-2.242.458-2.129 0-2.263.031-2.634.598-.367.56-.52.597-2.428.597-1.844 0-2.092.056-2.623.587-.498.497-.852.598-2.319.657l-1.732.07-.064 6.392-.064 6.392h-3.293c-4.268 0-3.867-.784-3.867 7.555 0 8.676-.452 7.738 3.729 7.738h3.439V182.9c0 18.671.053 19.967.818 19.967.256 0 .372.342.424 1.255.063 1.093.142 1.264.61 1.331.464.066.538.219.538 1.118 0 .899.074 1.053.537 1.118.445.064.559.263.657 1.152.099.889.213 1.089.658 1.152.389.055.537.236.537.657 0 .419.132.581.474.581.305 0 .526.211.623.597.131.522.28.597 1.183.597.889 0 1.043.075 1.109.538.065.458.243.548 1.196.61.945.061 1.132.154 1.195.597l.074.525 9.145.063 9.145.063.228-.601c.139-.365.415-.6.707-.6.717 0 .756-.451.679-7.814-.054-5.127-.145-6.813-.381-7.049-.226-.226-1.506-.33-4.719-.385l-4.409-.074v-.594c0-.327-.265-.84-.589-1.14-.551-.51-.594-.725-.658-3.274-.064-2.569-.099-2.742-.605-2.964l-.538-.236v-25.932h6.074c3.34 0 6.244-.066 6.451-.145.505-.194.582-14.51.08-14.835-.165-.107-3.068-.227-6.452-.268l-6.153-.074v-16.458l-1.971.018c-1.084.011-2.106.074-2.27.14M42.358 148.387c-.366.428-.705.478-3.239.478-2.784 0-3.662.188-4.065.871-.105.178-.553.324-.996.324-1.115 0-1.561.212-1.561.742 0 .303-.169.452-.51.452-.281 0-.76.269-1.064.598-.305.328-.711.597-.904.597-.67 0-1.106.293-1.106.743 0 .323-.171.452-.598.452-.461 0-.597.123-.597.541 0 .331-.208.632-.538.776-.415.182-.554.468-.611 1.252-.065.897-.141 1.015-.657 1.015-.455 0-.583.125-.583.57 0 .353-.168.613-.442.685-.431.112-.753 1.052-.753 2.198 0 .289-.269.779-.598 1.087l-.597.561v13.319l.57.614c.324.35.626 1.039.701 1.6.079.586.333 1.148.626 1.385.271.22.493.624.493.899 0 .373.15.499.597.499.478 0 .597.12.597.598 0 .477.12.597.598.597s.597.119.597.597.12.598.597.598c.478 0 .598.119.598.597s.119.597.597.597.598.12.598.598c0 .473.12.597.58.597.421 0 .602.149.657.538.059.411.258.555.848.612.469.045.949.302 1.229.657.252.32.684.583.961.583.335 0 .503.151.503.452 0 .513.445.742 1.437.742.524 0 .698.124.757.538.049.341.269.565.603.613.289.041.592.283.673.537.081.255.357.463.615.463.279 0 .559.241.694.597.125.329.384.598.575.598.192 0 .382.242.424.537.049.346.269.565.614.614.516.074.538.171.538 2.433 0 2.261-.022 2.359-.538 2.432-.345.05-.565.269-.614.614-.117.825-8.143.846-8.689.024-.263-.396-.651-.54-1.695-.626-1.054-.088-1.385-.212-1.496-.561-.185-.585-.828-.729-2.863-.641l-1.668.072-.074 1.168c-.054.855-.214 1.282-.597 1.592-.45.364-.535.711-.608 2.476-.046 1.129-.178 2.052-.292 2.052-.61 0-.938 1.491-.938 4.27 0 3.562.02 3.615 1.314 3.615.893 0 1.043.077 1.174.598.142.565.239.597 1.801.597 1.531 0 1.657.039 1.728.538l.077.537 8.753.063 8.753.063.566-.597c.447-.47.804-.597 1.701-.6 1.05-.004 1.135-.049 1.135-.601 0-.558.079-.598 1.194-.598s1.195-.039 1.195-.597c0-.538.095-.597.961-.597.788 0 1.009-.106 1.227-.585.147-.322.494-.618.772-.658a.675.675 0 0 0 .579-.595.677.677 0 0 1 .598-.597.676.676 0 0 0 .596-.588c.04-.282.279-.567.531-.633.314-.082.504-.411.607-1.053.102-.637.312-1.004.663-1.159.39-.171.533-.472.588-1.241.041-.559.168-1.016.282-1.016.597 0 .959-.818.959-2.167 0-1.085.082-1.417.35-1.417 1.089 0 1.301-7.307.248-8.558-.493-.586-.598-.963-.598-2.15 0-1.747-.151-2.195-.742-2.195-.37 0-.453-.178-.453-.972 0-.992-.318-1.827-.858-2.254-.166-.131-.337-.508-.379-.836-.052-.408-.247-.622-.614-.674-.39-.055-.538-.237-.538-.657 0-.46-.124-.581-.597-.581-.358 0-.598-.136-.598-.34 0-.5-1.396-1.81-1.93-1.81-.331 0-.459-.168-.459-.598 0-.478-.12-.597-.598-.597s-.597-.12-.597-.597c0-.474-.121-.598-.581-.598-.42 0-.602-.148-.657-.537-.065-.459-.243-.549-1.211-.611-1.025-.066-1.135-.13-1.135-.657 0-.484-.118-.584-.684-.584-.45 0-.836-.204-1.132-.598-.246-.328-.68-.597-.963-.597-.35 0-.563-.192-.665-.597-.097-.389-.317-.598-.629-.598-.291 0-.568-.234-.706-.597-.125-.329-.379-.598-.564-.598-.185 0-.395-.223-.466-.495a.967.967 0 0 0-.625-.625c-.773-.203-.707-2.211.102-3.084.328-.354.597-.897.597-1.207 0-.521.094-.562 1.297-.562 1.241 0 2.048-.384 2.048-.973 0-.526 1.4-.227 1.477.316.07.492.22.543 1.794.607 1.563.064 1.723.117 1.792.598.071.502.199.53 2.684.595 3.104.081 2.997.175 3.002-2.637.004-1.891.047-2.091.456-2.091.624 0 .743-.443.743-2.767 0-1.643.066-2.011.364-2.011.952 0 1.171-4.355.226-4.491-.267-.038-.59-.307-.717-.597-.184-.42-.464-.543-1.367-.601-.806-.051-1.135-.174-1.135-.424 0-.634-1.171-.817-5.244-.817-3.818 0-4.025-.024-4.144-.478-.102-.39-.326-.478-1.225-.478-.804 0-1.21.129-1.509.478m52.744 0c-.232.433-.501.478-2.857.478-2.921 0-3.356.096-3.356.742 0 .377-.18.453-1.071.453-.929 0-1.089.075-1.214.57-.111.444-.354.603-1.104.723-.66.106-.997.295-1.078.605-.065.248-.37.514-.677.591-.308.077-.627.355-.711.618-.083.262-.308.477-.501.477-.192 0-.427.188-.521.418-.095.23-.226-.76-.292-2.2-.116-2.546-.136-2.623-.716-2.784-.745-.206-15.45-.26-16.2-.06l-.548.147.07 6.443c.07 6.352.078 6.448.608 6.877l.538.435v51.9l9.259-.062 9.259-.063.061-21.787.061-21.788.537-.076c.487-.069.543-.225.607-1.689.067-1.534.099-1.613.657-1.613.462 0 .586-.124.586-.581 0-.42.149-.602.538-.657.346-.049.565-.268.614-.614.073-.516.17-.538 2.449-.538h2.373l.004.777c.004.892.183 1.226.773 1.444.383.141.418.667.418 6.341 0 6.314.208 8.557.837 9.026.306.228.363 2.427.416 16.01l.061 15.745 8.792.063c5.789.041 8.951-.023 9.259-.188.459-.245.468-.655.468-22.328v-22.077l.537-.077c.457-.065.549-.243.61-1.186.057-.88.172-1.137.555-1.237a.95.95 0 0 0 .611-.614c.07-.269.326-.551.568-.628.241-.076.506-.349.587-.605.231-.726 3.583-.699 3.774.03.071.273.347.552.612.622.265.069.515.357.555.639a.677.677 0 0 0 .587.587c.513.073.514.078.598 8.96.083 8.642.1 8.918.622 9.979l.536 1.091v27.094l9.26-.062 9.259-.063v-45.718l-.538-.728c-.496-.671-.537-.979-.537-4.025 0-3.239-.011-3.306-.598-3.747-.518-.389-.597-.634-.597-1.849 0-1.334-.028-1.4-.598-1.4-.557 0-.597-.079-.597-1.195 0-1.021-.067-1.194-.461-1.194-.297 0-.489-.192-.538-.538-.049-.345-.268-.565-.614-.614-.296-.042-.537-.234-.537-.426 0-.449-1.551-2.007-1.998-2.007-.187 0-.408-.268-.49-.597-.132-.524-.279-.597-1.204-.597-.911 0-1.065-.073-1.131-.538-.072-.508-.199-.541-2.33-.607-1.921-.059-2.303-.138-2.582-.537-.481-.687-3.143-.68-3.766.009-.376.415-.736.478-2.743.478-2.124 0-2.354.046-2.845.568-.328.349-.917.619-1.532.702-.576.077-1.16.332-1.378.601-.208.257-.585.506-.839.554-.253.048-.566.328-.696.623s-.425.536-.657.536c-.29 0-.421.186-.421.598 0 .477-.12.597-.598.597-.477 0-.597.119-.597.597 0 .474-.12.598-.581.598-.451 0-.604.147-.681.657-.055.361-.116.092-.136-.598-.033-1.169-.076-1.254-.633-1.254-.478 0-.597-.12-.597-.597 0-.431-.129-.598-.462-.598-.296 0-.488-.192-.537-.537-.046-.326-.268-.566-.562-.608-.267-.038-.589-.307-.717-.597-.174-.397-.47-.545-1.195-.599-.725-.053-1.021-.201-1.195-.597-.22-.502-.389-.53-3.565-.593-2.959-.06-3.383-.12-3.773-.538-.563-.605-1.289-.602-1.614.007m73.062 0c-.27.434-.557.478-3.078.478-3.439 0-4.274.146-4.274.747 0 .394-.195.448-1.637.448-1.416 0-1.725.081-2.283.597-.456.423-.914.597-1.568.597-1.232 0-1.68.198-1.68.743 0 .32-.17.452-.582.452-1.508 0-1.808.338-1.808 2.041 0 1.656.277 2.499.821 2.499.243 0 .347.523.41 2.062.075 1.823.147 2.104.622 2.419.469.311.537.562.537 1.982 0 2.313.759 3.095 3.005 3.095 1.478 0 1.535-.022 1.535-.597 0-.559.079-.598 1.21-.598 1.344 0 2.135-.313 2.135-.844 0-.276.377-.35 1.788-.35 1.707 0 1.794-.027 1.937-.598.223-.889 4.795-.944 4.921-.059.065.457.243.548 1.196.609.945.061 1.132.155 1.195.598.047.333.271.553.612.601.332.047.538.243.538.51 0 .238.206.487.457.553.253.066.494.373.538.685.053.373.263.591.618.642.474.067.537.214.537 1.254v1.178l-1.015.004c-1.423.004-2.052.214-2.219.739-.131.413-.412.452-3.245.452-3.001 0-3.119.019-3.655.598-.412.444-.797.597-1.507.597-.68 0-1.134.167-1.584.584-.446.414-.961.606-1.767.657-.911.059-1.184.18-1.373.611-.175.4-.436.537-1.02.537-.606 0-.847.137-1.057.598-.178.389-.467.597-.832.597-.437 0-.559.131-.559.598 0 .477-.119.597-.597.597s-.597.119-.597.597-.12.598-.598.598-.597.119-.597.597-.12.597-.597.597c-.431 0-.598.129-.598.462 0 .296-.192.488-.537.537-.385.055-.56.263-.614.734-.044.382-.221.657-.424.657-.393 0-.814.934-.814 1.808 0 .411-.133.581-.453.581-.58 0-.742.449-.742 2.051 0 .978-.086 1.295-.35 1.295-.737 0-.845.926-.845 7.242 0 7.018.076 7.811.747 7.811.39 0 .448.194.452 1.494.004 1.6.118 1.919.773 2.16.23.085.418.373.418.64 0 .358.156.485.597.485.426 0 .597.13.597.45 0 .702 3.53 4.329 4.213 4.329.445 0 .566.129.566.598 0 .557.08.597 1.195.597s1.195.04 1.195.597v.598h7.065c7 0 7.989-.101 7.989-.814 0-.19.399-.384.98-.477.684-.109 1.016-.294 1.099-.614.073-.277.37-.487.753-.531.435-.05.655-.233.705-.585.176-1.229 1.213-.837 1.29.487.061 1.046.146 1.23.594 1.294a.675.675 0 0 1 .597.597l.075.523 7.989.063c6.232.05 8.03-.003 8.18-.239.229-.361.267-36.185.041-39.365-.133-1.878-.225-2.238-.597-2.335-.407-.106-.44-.44-.44-4.404 0-4.265-.151-5.213-.834-5.213-.252 0-.357-.413-.409-1.613-.062-1.408-.139-1.643-.609-1.849-.436-.191-.537-.427-.537-1.25 0-.882-.078-1.033-.598-1.164-.429-.107-.597-.311-.597-.721 0-.45-.127-.572-.597-.572-.482 0-.598-.118-.598-.613 0-.73-.393-1.537-.749-1.537-.139 0-.555-.323-.923-.717-.403-.431-.911-.717-1.274-.717-.444 0-.625-.142-.681-.535-.043-.301-.278-.574-.537-.623-.253-.048-.638-.308-.856-.577-.285-.351-.764-.519-1.705-.597-1.049-.087-1.353-.21-1.533-.621-.208-.475-.425-.516-3.018-.579-2.538-.061-2.808-.11-2.944-.537-.231-.731-7.123-.724-7.58.007m63.322 0c-.259.415-.557.478-2.253.478-2.245 0-2.71.123-2.71.715 0 .321-.264.465-1.075.587-.833.125-1.075.261-1.075.608 0 .281-.199.475-.538.523-.296.042-.644.319-.774.616-.131.297-.426.6-.657.673-.231.073-.485.395-.566.714-.08.32-.299.582-.486.582s-.437.242-.556.538c-.152.378-.221-.152-.231-1.788-.015-2.261-.032-2.329-.599-2.472-.355-.089-.613-.348-.657-.661l-.074-.516h-16.009l-.057 32.497c-.035 20.208.029 32.633.171 32.856.298.471 18.711.679 19.266.218.28-.232.333-3.356.333-19.483v-19.206h.597c.558 0 .598-.079.598-1.195 0-.889.089-1.194.35-1.194.437 0 .845-.735.845-1.521 0-.437.144-.617.537-.673.34-.048.565-.268.612-.599a.678.678 0 0 1 .598-.598c.331-.047.551-.271.599-.612.064-.454.223-.537 1.021-.537.775 0 .993-.107 1.216-.598.272-.596.276-.597 3.699-.597h3.426v-18.877h-1.167c-.966 0-1.188-.082-1.292-.478-.106-.406-.326-.478-1.459-.478-1.076 0-1.393.093-1.633.478m69.837-.009c-.391.391-.86.481-2.808.538-2.202.064-2.343.099-2.413.594-.063.443-.25.536-1.195.597-.953.061-1.131.152-1.196.61-.062.435-.229.537-.877.537-1.1 0-1.556.213-1.556.726 0 .27-.204.465-.537.512-.346.049-.565.269-.614.614-.062.436-.229.538-.879.538-.745 0-1.554.492-1.554.945 0 .107-.223.252-.495.324-.273.071-.554.349-.624.617-.07.268-.318.548-.551.622-.233.074-.489.46-.568.858-.152.759-.656 1.413-1.09 1.413-.141 0-.256.261-.256.581 0 .42-.149.602-.538.657-.459.065-.548.243-.61 1.211-.066 1.025-.13 1.135-.657 1.135-.532 0-.585.095-.585 1.059 0 .85-.094 1.09-.477 1.211-.403.128-.478.362-.478 1.475 0 1.127-.089 1.394-.598 1.794-.56.441-.597.607-.597 2.684 0 2.132-.022 2.224-.6 2.488l-.6.273.062 10.219.063 10.219.529.075c.499.071.533.207.597 2.39.065 2.194.096 2.318.606 2.39.472.067.538.216.538 1.222 0 .765.151 1.339.454 1.724.25.318.492.843.538 1.167.055.392.259.615.608.665.43.061.537.254.597 1.075.055.763.198 1.055.601 1.232.29.127.559.45.597.717.042.293.282.515.607.561.346.05.538.242.538.538 0 .333.166.461.597.461.478 0 .597.12.597.598s.12.597.598.597.597.12.597.597c0 .478.12.598.598.598.477 0 .597.119.597.597 0 .505.111.598.717.598.47 0 .717.12.717.35 0 .44.736.844 1.537.844.379 0 .613.134.613.35 0 .595.845.845 2.852.845 1.899 0 1.927.009 1.927.6v.6l9.857-.062 9.856-.063.077-.537c.073-.514.175-.538 2.304-.538 2.063 0 2.271-.044 2.791-.593.33-.348.835-.595 1.22-.598l.657-.004v-2.77c0-2.569-.034-2.779-.478-2.895-.434-.114-.477-.326-.477-2.352 0-2.384-.254-3.452-.818-3.452-.256 0-.372-.342-.424-1.255l-.073-1.254h-3.068c-2.894 0-3.093.03-3.503.537-.427.528-.53.538-5.656.538-5.186 0-5.224-.004-5.458-.538-.182-.415-.467-.554-1.251-.611-.818-.059-1.016-.163-1.016-.533 0-.286-.217-.514-.575-.604-.316-.079-.628-.35-.694-.602a.637.637 0 0 0-.603-.457c-.32 0-.51-.182-.56-.538-.049-.341-.269-.565-.602-.612-.443-.063-.536-.25-.597-1.195-.062-.953-.153-1.131-.61-1.196-.503-.072-.538-.193-.538-1.85v-1.774l14.636-.062 14.635-.061.063-10.34.062-10.339-.591-.225c-.562-.213-.594-.331-.66-2.444-.065-2.096-.098-2.224-.606-2.296-.475-.067-.538-.215-.538-1.254 0-.845-.13-1.309-.46-1.639-.253-.253-.495-.764-.538-1.135-.055-.482-.226-.696-.602-.749-.43-.061-.537-.255-.597-1.076-.055-.762-.198-1.055-.601-1.232-.29-.127-.559-.45-.597-.717-.041-.288-.281-.515-.592-.559a.678.678 0 0 1-.598-.598.675.675 0 0 0-.597-.597.675.675 0 0 1-.597-.597c-.048-.331-.272-.551-.613-.6-.333-.047-.537-.242-.537-.512 0-.513-.455-.726-1.556-.726-.648 0-.815-.102-.877-.537-.065-.458-.243-.549-1.196-.61-.945-.061-1.132-.154-1.195-.597-.07-.493-.214-.53-2.329-.595-1.921-.059-2.303-.138-2.582-.537-.494-.705-5.322-.705-6.027 0m25.857.728c-.873.36-.821 4.219.06 4.44.526.132.598.278.598 1.222 0 .861.091 1.095.465 1.193.363.095.482.367.538 1.232.06.924.158 1.123.581 1.183.434.062.525.27.62 1.414.083.997.243 1.448.626 1.758.283.229.516.668.518.975.006 1.019.281 1.635.728 1.635.352 0 .452.221.51 1.135.062.968.152 1.146.611 1.211.472.067.537.216.537 1.222 0 .895.127 1.273.582 1.727.403.404.604.906.657 1.645.063.894.162 1.077.613 1.141.474.067.538.215.538 1.25 0 1.052.061 1.189.597 1.323.524.132.598.28.598 1.2 0 .96.05 1.049.597 1.049.565 0 .597.071.597 1.326 0 1.107.099 1.416.598 1.879.529.491.597.747.597 2.258 0 1.66-.016 1.705-.597 1.705-.557 0-.598.081-.598 1.179 0 1.039-.063 1.187-.537 1.254-.457.065-.549.243-.61 1.189-.061.952-.156 1.133-.657 1.259-.512.128-.585.28-.585 1.217 0 .781-.095 1.071-.35 1.071-.499 0-.845.769-.845 1.878 0 .734-.138 1.063-.597 1.424-.464.365-.598.69-.598 1.451 0 .804-.082.982-.452.982-.524 0-.742.446-.742 1.516 0 .559-.143.822-.538.996-.406.178-.556.47-.611 1.191-.048.623-.246 1.09-.569 1.34-.352.271-.531.746-.616 1.628-.093.968-.245 1.327-.685 1.615-.453.297-.566.58-.566 1.419 0 .888-.072 1.047-.478 1.047-.414 0-.477.16-.477 1.195 0 1.12-.039 1.195-.607 1.195h-.606l.069 2.21.068 2.21h18.399l.076-.657c.044-.382.221-.657.424-.657.462 0 .815-.981.815-2.269 0-.814.099-1.076.452-1.187.529-.169.733-.793.743-2.279.006-.828.144-1.204.601-1.638.511-.484.593-.774.593-2.085 0-1.36.064-1.564.597-1.914.542-.355.598-.545.598-2.036 0-1.486.046-1.646.478-1.646.262 0 .49-.134.506-.298.015-.165.096.024.18.418.088.419.374.815.688.953.457.2.537.419.537 1.473 0 1.546.167 1.994.743 1.994.393 0 .452.186.452 1.417 0 1.36.362 2.168.973 2.168.122 0 .222.53.222 1.178 0 1.04.063 1.187.537 1.254.494.07.544.219.608 1.809.068 1.661.094 1.732.657 1.732.545 0 .587.086.587 1.195v1.195h9.782c5.51 0 10.038-.098 10.37-.224 1.035-.394 1.171-3.121.156-3.121-.366 0-.462-.21-.522-1.135-.062-.969-.151-1.147-.61-1.212-.475-.067-.538-.214-.538-1.254 0-1.098-.041-1.178-.597-1.178-.557 0-.598-.081-.598-1.178 0-.971-.104-1.259-.597-1.647-.483-.38-.597-.681-.597-1.577 0-.96-.079-1.136-.598-1.333-.515-.196-.597-.375-.597-1.304 0-.949-.071-1.094-.597-1.227-.524-.131-.598-.279-.598-1.199 0-.96-.051-1.049-.597-1.049-.558 0-.598-.08-.598-1.195 0-1.035-.063-1.195-.477-1.195-.415 0-.478-.159-.478-1.205 0-.951-.12-1.326-.568-1.773-.344-.345-.631-.993-.729-1.65-.117-.775-.295-1.124-.628-1.23-.339-.108-.465-.365-.465-.948 0-1.11-.213-1.557-.742-1.557-.356 0-.453-.175-.453-.817 0-1.126-.21-1.572-.742-1.572-.759 0-.676-3.52.085-3.628.458-.065.549-.243.61-1.196.061-.945.155-1.132.598-1.195.432-.061.538-.254.598-1.09.041-.559.167-1.016.282-1.016.474 0 .959-.805.959-1.592 0-.627.116-.872.456-.961.475-.124.73-.73.735-1.75.002-.338.212-.73.482-.898.362-.227.477-.557.477-1.372 0-.644.109-1.073.273-1.073.517 0 .907-.84.915-1.971.007-1.05.052-1.135.605-1.135.557 0 .597-.08.597-1.195s.04-1.195.597-1.195c.558 0 .598-.079.598-1.195 0-1.115.04-1.194.597-1.194.549 0 .597-.087.597-1.083 0-.813.105-1.121.419-1.237.605-.223.768-.554.773-1.563.002-.642.106-.896.368-.896.986 0 1.266-5.381.292-5.618-.295-.072-4.462-.101-9.259-.064l-8.722.066-.072 1.12c-.061.945-.154 1.132-.597 1.195-.478.068-.532.231-.595 1.792-.064 1.564-.117 1.724-.598 1.792-.48.069-.533.228-.597 1.808-.068 1.661-.095 1.732-.657 1.732-.571 0-.587.049-.587 1.775 0 1.66-.035 1.781-.538 1.852-.495.071-.543.218-.611 1.869-.065 1.578-.144 1.843-.658 2.221l-.583.43v-1.071c0-1.329-.35-2.297-.83-2.297-.28 0-.365-.291-.368-1.255-.004-1.711-.201-2.329-.741-2.329-.38 0-.45-.184-.45-1.18 0-1.427-.338-2.405-.831-2.405-.281 0-.364-.293-.364-1.294 0-1.584-.163-2.051-.715-2.051-.353 0-.441-.261-.523-1.552-.054-.854-.233-1.688-.398-1.852-.367-.367-19.183-.534-20.049-.178m-22.876 14.393c.13.295.451.577.713.626.631.119 1.5 1.076 1.596 1.759.05.348.267.571.605.619.48.068.534.228.597 1.792.064 1.574.115 1.723.608 1.793.516.074.538.171.538 2.45v2.372h-11.948v-1.911c0-1.554.068-1.912.364-1.912.49 0 .831-.975.831-2.377 0-.945.084-1.173.471-1.275.335-.087.517-.407.628-1.103.132-.827.245-.98.724-.98.445 0 .566-.128.566-.597 0-.478.12-.597.598-.597s.597-.12.597-.598c0-.86 2.138-.912 2.512-.061m-128.438 27.154c0 6.3-.009 6.426-.495 6.553-.273.072-.553.35-.624.618-.07.268-.331.552-.579.631a.682.682 0 0 0-.452.605c0 .313-.166.462-.511.462-.28 0-.759.269-1.063.597-.713.769-2.25.863-2.25.139 0-.312-.221-.508-.692-.611-.817-.18-1.336-.717-1.546-1.602-.084-.353-.352-.705-.596-.782-.977-.31-.875-7.112.12-8.047.31-.292.564-.719.564-.95 0-.253.213-.449.538-.495a.68.68 0 0 0 .614-.614c.049-.351.24-.538.548-.538.26 0 .741-.269 1.07-.597.401-.402.862-.598 1.403-.598 1.115 0 1.562-.212 1.562-.742 0-.384.182-.453 1.194-.453h1.195v6.424" fill="#fff"/><path d="M290.654 70.246c-.277.112-.565.455-.64.762l-.136.557.371-.538c.204-.295.513-.537.686-.537.173 0 .382-.108.463-.239.175-.283-.052-.284-.744-.005m2.357-.063c.361.055.953.055 1.314 0 .361-.055.066-.099-.657-.099-.723 0-1.019.044-.657.099m2.867-.006c.23.06.606.06.836 0 .23-.06.042-.11-.418-.11-.46 0-.648.05-.418.11m3.992.593c.286.267.586.418.668.337.198-.199-.32-.694-.801-.765-.298-.043-.267.056.133.428m6.462.528c0 .051.269.143.598.206.328.063.597.022.597-.091 0-.114-.269-.206-.597-.206-.329 0-.598.041-.598.091m-19.116.401c0 .139-.107.186-.239.105-.131-.081-.239.013-.239.21 0 .205-.279.401-.657.46-.361.057-.238.072.274.034.837-.063 1.325-.386 1.335-.883.002-.099-.103-.179-.235-.179-.131 0-.239.114-.239.253m20.968-.085c.296.057.538.258.538.446 0 .197.227.338.537.333l.538-.007-.564-.47c-.31-.259-.794-.456-1.075-.438-.494.032-.493.036.026.136m13.978 2.26c.362.132.658.369.658.528 0 .158.215.303.477.323.263.02.478-.062.478-.182 0-.294-1.304-.951-1.84-.928-.285.013-.209.1.227.259m-42.221 1.236c-.24.176-.377.472-.303.658.105.265.137.256.152-.045.01-.209.261-.498.556-.64.296-.143.424-.267.285-.276-.139-.009-.45.128-.69.303m47.636-.059c.317.127.716.416.888.642.295.388.314.388.321.002.008-.456-.685-.912-1.351-.889-.332.012-.299.069.142.245m-49.68 1.109c-.393.15-.707.539-.713.883-.002.121.238.001.534-.268.296-.269.699-.549.896-.621.319-.116.319-.131 0-.131-.197 0-.52.062-.717.137m54.66.093c.427.123.776.347.776.496 0 .15.069.203.154.119.29-.291-.452-.882-1.079-.861-.587.02-.577.036.149.246m4.457 1.525c.667.617 1.098.764 1.098.372 0-.298-.971-.97-1.402-.97-.213 0-.099.224.304.598m-61.506.239c-.244.293-.228.358.09.358.213 0 .388-.161.388-.358 0-.197-.041-.359-.091-.359-.049 0-.224.162-.387.359m65.641.746c-.187.187.07.807.334.807.273 0 .279-.648.008-.816-.113-.07-.267-.066-.342.009m3.003 1.524c.021.286.207.478.463.478.495 0 .549-.26.14-.669-.421-.422-.644-.351-.603.191m-73.559 1.069c-.325.326-.791.699-1.034.829-.65.348-.824 1.185-.213 1.025.257-.067.53-.295.607-.507.207-.569.932-1.463 1.073-1.323.067.067.185-.044.263-.247.202-.526-.016-.456-.696.223m75.923-.137c.156.249.429.398.606.33.401-.154-.048-.784-.558-.784-.266 0-.275.09-.048.454m2.11.977a.24.24 0 0 0 .239.241c.131 0 .212.12.179.267-.033.147.121.298.342.335.228.039.355-.053.294-.212-.15-.391-1.054-.932-1.054-.631m-80.621 1.713c-.471.673-.5 1.046-.049.628.183-.169.29-.379.237-.466-.052-.088.039-.207.205-.266.165-.059.23-.183.145-.275-.085-.092-.327.078-.538.379m84.862 1.642c.296.119.547.408.557.642.012.264.066.309.142.119.162-.404-.356-1.011-.847-.992-.264.01-.215.085.148.231m1.061 1.335a.871.871 0 0 1 .524.524c.087.293.107.273.072-.072a.584.584 0 0 0-.524-.523c-.345-.036-.365-.016-.072.071m-87.483 2.74c.009.317.114.792.233 1.055.151.333.172.188.071-.478-.169-1.109-.329-1.412-.304-.577m2.52 3.086c.187.742.087.654.928.818.703.138.705.136.092-.109-.344-.137-.748-.487-.898-.778-.264-.512-.268-.509-.122.069m85.259-.291c-.339.227-.62 1.008-.363 1.008.301 0 .796-.665.702-.94-.046-.132-.198-.162-.339-.068m-83.017 1.512c0 .519.983.989 1.813.866.617-.092.595-.108-.187-.14-.614-.024-.995-.197-1.254-.566-.268-.383-.372-.427-.372-.16m2.867 1.16c0 .127.22.348.489.492.451.242.465.224.181-.23-.323-.517-.67-.653-.67-.262m4.309 1.096c-.009.292.479.824.757.824.105 0 .191-.125.191-.279 0-.153-.07-.208-.156-.123-.085.086-.297-.031-.47-.259s-.318-.301-.322-.163m7.161 1.174c0 .429.732.846 1.477.841.43-.003.476-.053.207-.223-.191-.121-.421-.174-.511-.118-.09.055-.219-.113-.288-.375-.142-.546-.885-.651-.885-.125m10.752 1.078c0 .313 1.17 1.066 1.36.876.206-.206-.64-1.109-1.038-1.109-.177 0-.322.105-.322.233m48.985 1.44c0 .288-.166.485-.418.496-.272.013-.309.063-.106.144.32.128 1.241-.552 1.241-.916 0-.112-.162-.202-.359-.202-.199 0-.358.212-.358.478m-37.231.014a.745.745 0 0 0 .418.419c.179.059.269-.03.209-.209a.751.751 0 0 0-.418-.419c-.18-.059-.269.03-.209.209m6.406.924c0 .225.661.973.859.973.06 0-.068-.269-.283-.597-.415-.633-.576-.738-.576-.376m28.435.256c0 .263-.125.478-.278.478-.154 0-.211.068-.127.152.191.191 1.361-.56 1.361-.874 0-.129-.215-.234-.478-.234-.318 0-.478.16-.478.478m-25.283.971a.744.744 0 0 0 .418.418c.179.06.269-.03.209-.209a.75.75 0 0 0-.418-.418c-.18-.06-.269.03-.209.209m19.978 1.39c-.173.247-.529.504-.79.57-.473.119-.473.12.002.144.619.031 1.147-.309 1.217-.786.072-.496-.045-.476-.429.072m-18.732 1.736c-.453.51-.452.511.083.231.295-.155.537-.386.537-.513 0-.339-.114-.287-.62.282m11.254.822c-.395.316-.589.575-.433.576a.565.565 0 0 0 .435-.242c.082-.133.251-.18.374-.104.215.132.614-.535.43-.717-.049-.048-.412.171-.806.487m-4.627 1.076c-.384.311-.45.457-.208.457.358 0 1.041-.648.866-.822-.051-.051-.347.113-.658.365" fill="#030"/><path d="M288.459 47.121c-.366.365-.371.737-.009.616.153-.051.304-.275.337-.498.071-.482.045-.491-.328-.118m61.035 5.572c-.081.211-.256.317-.388.235-.133-.082-.241-.035-.241.104 0 .14.094.254.21.254.282 0 .846-.697.69-.853-.068-.068-.19.049-.271.26m-86.836 4.788c-.552.386-.707.822-.292.822.131 0 .212-.099.179-.222-.033-.122.155-.387.418-.589.626-.482.38-.491-.305-.011m-5.024 3.738c-.354.354-.37.669-.033.669.139 0 .19-.101.114-.225-.076-.123.052-.335.285-.47.233-.136.31-.25.172-.254-.138-.004-.38.122-.538.28m34.973 7.247c-.372.281-.389.351-.089.351.206 0 .508-.161.672-.358.378-.456.023-.452-.583.007m-1.554 1.942c-.306.153-.643.418-.749.589-.106.172-.602.33-1.102.351-.501.021-.964.065-1.03.096a.581.581 0 0 1-.284.035c-.091-.013-.231.185-.312.441-.098.308-.446.513-1.03.609-1.979.322-2.168.386-2.052.689.081.212-.275.374-1.149.524-1.008.172-1.252.301-1.196.633.066.393-.442.529-1.8.481-.163-.006-.237.084-.165.201.072.116.017.212-.122.212s-.253.148-.253.328c0 .36-1.33.72-1.734.47-.138-.085-.184-.045-.101.089.2.324-.513.922-1.331 1.116-.443.106-.657.311-.657.63 0 .444-.336.576-1.374.537-.165-.006-.299.096-.299.227s-.154.179-.342.107c-.239-.092-.315.008-.253.333.068.352-.044.464-.468.464-.396 0-.601.174-.708.597-.098.39-.317.598-.631.598-.264 0-.543.164-.62.364-.103.269-.222.297-.449.108-.223-.185-.359-.176-.487.031-.113.182-.077.225.098.117.405-.251.336.227-.083.574-.197.164-.358.449-.358.633s-.277.44-.615.569c-.594.226-1.491.949-1.177.949.084 0-.016.169-.222.375-.207.207-.376.518-.376.691 0 .174-.241.377-.537.452-1.016.259-.716 5.411.315 5.411.254 0 .44.081.414.18-.134.508.343 1.216.764 1.135.287-.056.509.078.599.362.14.44.494.629 1.575.837.538.103.981.56.812.834-.05.08.357.171.902.203.546.033 1.114.16 1.262.283.149.124.344.151.433.062.09-.09.328.072.529.36.317.452.59.523 2.013.523 1.372 0 1.7.079 1.979.477.183.262.404.405.491.318.087-.086.158-.053.158.075s.242.238.538.245c.295.007 1.858.028 3.472.046 2.551.03 2.957.089 3.106.452.25.609.43.632 5.668.717 4.633.076 4.794.095 5.271.627.479.534.621.55 5.347.605 5 .059 5.989.205 5.989.882 0 .323.064.34.358.096.197-.163.358-.199.358-.08 0 .119.35.224.777.234 3.885.083 4.362.147 4.754.637.216.271.7.523 1.075.561 2.021.203 2.116.231 2.087.607-.019.242.224.434.657.521.977.195 1.044 2.147.089 2.582-.731.333-.844 1.604-.179 2.005.814.492 5.968.24 6.737-.329.514-.38 1.08-.51 2.383-.548.94-.027 1.765-.141 1.834-.252a.476.476 0 0 1 .364-.203c.132 0 .162.124.069.276-.107.172-.066.211.109.103.154-.095.222-.266.152-.379-.259-.42.385-.633 2.433-.804 1.376-.114 1.749-.27 1.749-.73 0-.201.466-.359 1.322-.447.904-.093 1.453-.288 1.733-.613.347-.405 1.106-.611 2.713-.739.084-.007.138-.2.12-.43-.024-.3.169-.437.683-.484 1.414-.129 1.792-.293 1.792-.775 0-.357.163-.474.657-.477 1.126-.005 1.733-.265 1.733-.741 0-.425.89-.624 2.091-.468.169.022.298-.219.298-.555 0-.513.121-.603.896-.667.659-.055.959-.217 1.132-.612.13-.296.428-.538.662-.538.235 0 .549-.269.699-.597.15-.329.426-.598.615-.598.188 0 .398-.215.467-.477.109-.416.309-.551.786-.53.164.008.732-.626.704-.784-.082-.451.341-1.537.644-1.653.57-.219.4-5.61-.173-5.461-.275.072-.477-.123-.654-.633-.141-.405-.407-.736-.59-.736-.182 0-.455-.269-.604-.598-.163-.356-.471-.597-.766-.597-.327 0-.47-.133-.423-.392.046-.26-.196-.483-.721-.663-.456-.157-.708-.366-.597-.496.106-.124.022-.096-.187.063-.472.358-.789.096-.42-.347.214-.258.188-.295-.122-.176-.218.084-.392.033-.392-.114 0-.146-.209-.265-.464-.265s-.535-.114-.621-.255a.386.386 0 0 0-.45-.143c-.16.061-.419-.093-.575-.342-.21-.337-.561-.454-1.357-.454-.59 0-1.06-.081-1.045-.18.142-.894-.033-1.015-1.462-1.015-1.397 0-1.548-.089-1.461-.856.017-.141-.159-.257-.389-.256-2.462.012-3.171-.109-3.743-.639-.461-.427-.917-.569-1.97-.611-1.515-.062-1.841-.178-1.68-.598.121-.314.147-.309-2.704-.521-1.267-.095-2.128-.274-2.29-.477-.446-.561-1.43-.794-3.547-.841-1.47-.032-2.048-.131-2.048-.348 0-.483-1.155-.754-3.447-.808-2.042-.048-3.23-.408-2.824-.855.097-.108 0-.132-.217-.055-.218.078-.458.078-.535.001-.128-.127-1.133-.176-5.582-.272-1.154-.025-1.493-.114-1.493-.391 0-.197-.206-.358-.458-.358s-.513-.135-.579-.299c-.093-.23-.125-.227-.139.014-.011.172-.129.245-.263.162-.135-.083-1.763-.205-3.619-.27-3.148-.112-4.356-.389-3.859-.886.077-.077-.089-.096-.37-.042s-.51.024-.51-.067c0-.291-7.271-.188-7.872.111m-22.909 10.408c-.351.351-.365.665-.03.665.14 0 .193-.098.118-.218-.074-.12 0-.267.166-.326.165-.059.239-.174.164-.255-.074-.082-.262-.021-.418.134" fill="#005f33"/><path d="M330.738 108.252c-.741.617-.406.61.38-.008.334-.263.512-.475.396-.47-.117.004-.466.219-.776.478m-9.472 3.576c-.081.131-.06.241.046.243.106.002.032.117-.165.257-.237.168-.252.225-.042.169.174-.046.301-.184.281-.307-.019-.123.161-.301.4-.396.382-.15.386-.173.032-.188-.222-.009-.47.091-.552.222m-5.615 2.165c0 .139-.1.191-.222.115-.123-.075-.29-.028-.373.106-.082.133.06.242.317.242.256 0 .528-.161.603-.358.076-.197.034-.358-.093-.358-.128 0-.232.113-.232.253m43.884.096c-.071.183.02.299.212.271.515-.076.647-.308.259-.456-.192-.074-.404.01-.471.185m-56.206 4.934c-.23.372.051.523.502.27.36-.201.363-.241.026-.37-.207-.08-.445-.035-.528.1m-9.387 4.672c-.382.416-.275.615.18.334.177-.109.281-.308.232-.441-.051-.141-.225-.096-.412.107m-3.613 2.103c-.16.193-.235.489-.167.658.076.189.13.144.142-.12.01-.234.261-.523.556-.642.364-.146.412-.221.149-.231-.214-.008-.52.143-.68.335m33.743 6.685c.097.115.055.356-.094.535-.42.507-.087.617.43.142.254-.233.414-.398.355-.366-.059.031-.279-.073-.488-.231-.209-.159-.3-.195-.203-.08m-31.599 9.84c0 .318.065.334.359.09.197-.163.358-.338.358-.387 0-.05-.161-.091-.358-.091-.198 0-.359.175-.359.388m-14.098 3.826c0 .172.964 1.043 1.154 1.043.068 0-.128-.268-.437-.597-.581-.619-.717-.703-.717-.446m3.94 5.587c-.082.134-.242.186-.356.116-.113-.07-.273-.018-.356.115-.237.385.504.282.834-.115.164-.197.237-.359.163-.359-.074 0-.202.11-.285.243" fill="#390"/><path d="M375.947 24.392c-.242.088-.508.12-.593.072-.085-.048-.221.18-.303.508-.109.435-.31.596-.743.596s-.592.128-.592.477c0 .317-.16.478-.474.478-.305 0-.526.212-.623.598-.096.383-.318.597-.619.597-.55 0-1.204.576-.961.846.092.103.041.114-.114.025-.156-.089-.35-.053-.433.081-.082.134-.361.243-.619.243-.262 0-.583.251-.729.571-.184.403-.524.613-1.161.715-.601.096-.94.292-1.017.588-.081.307-.428.494-1.128.606-.725.116-1.047.295-1.135.633-.088.337-.336.476-.872.488-.672.015-1.989.403-1.508.444.654.056-.69.734-1.455.734-.765 0-.984.108-1.207.597-.234.515-.438.602-1.472.627-1.77.044-2.036.145-2.036.767 0 .177-.567.303-1.553.344-1.157.049-1.648.178-1.923.504-.281.334-.842.473-2.334.58-2.052.148-2.535.287-2.303.661.195.316-.223.411-2.395.544-1.51.092-1.984.213-2.283.582-.316.39-.781.486-2.873.591-2.582.131-3.426.31-3.196.681.21.34-.284.413-3.677.539-2.948.111-4.059.363-3.755.855.128.208.386.193-4.233.249-2.069.025-3.824.145-3.899.267-.076.122-.245.155-.376.074s-.295.07-.364.335c-.119.454-.351.486-4.027.561-3.571.073-3.96.125-4.609.604-.652.483-1.008.528-4.564.569-2.122.025-3.916.141-3.988.257-.072.116-.238.145-.369.064-.131-.081-.297.078-.37.354-.116.445-5.59.835-7.329.522-.113-.02-.555.23-.983.556-.693.529-1.033.599-3.092.637-1.914.036-2.405.124-2.84.509-.29.256-.392.397-.228.313.164-.083.299-.038.299.102 0 .16-.824.253-2.245.253-1.815 0-2.271.071-2.387.373-.079.206-.241.314-.359.241-.119-.074-.278.027-.353.223-.102.267-.533.357-1.698.357-.939 0-1.56.101-1.56.254 0 .139-.1.191-.222.116-.122-.076-.291.079-.375.344-.119.377-.368.485-1.152.498-1.117.019-1.85.245-1.913.59-.023.126-.123.203-.221.17-.099-.033-.179.048-.179.179s-.438.239-.973.239c-1.011 0-1.646.387-1.476.898.071.213-.279.297-1.235.297-.734 0-1.322.08-1.306.179.092.585-.105.777-.805.78-.886.004-1.493.315-1.493.764 0 .177-.483.401-1.135.527-.829.16-1.135.33-1.135.63 0 .304-.281.453-1.076.572-.687.103-1.075.282-1.075.497 0 .326-.798.907-.988.718-.052-.052-.361.122-.688.388-.327.265-.443.402-.258.305.211-.112.277-.082.176.08-.087.142-.481.328-.875.415-.394.086-.823.356-.953.599s-.478.476-.774.518c-.346.049-.566.269-.615.614-.049.35-.24.538-.547.538-.259 0-.709.231-.999.513-.29.282-.393.437-.229.344.164-.092.299-.103.299-.022 0 .08-.319.257-.708.392-.388.136-.772.453-.852.705-.08.251-.307.457-.505.457-.42 0-.884.425-1.107 1.016-.088.23-.33.418-.539.418-.209 0-.323.091-.254.203.124.201-1.063 1.378-1.292 1.281-.066-.028-.12.084-.12.249 0 .324-.473.983-1.135 1.58-.23.208-.418.556-.418.774 0 .219-.215.454-.478.522a.637.637 0 0 0-.478.615c0 .269-.269.758-.597 1.087-.36.359-.598.87-.598 1.283 0 .423-.229.901-.597 1.247-.532.5-.597.754-.597 2.312 0 .977-.103 1.75-.233 1.75-1.05 0-1.318 4.234-.325 5.153.465.432.558.756.558 1.954 0 1.438.389 2.204.945 1.86.153-.094.249.131.249.579 0 .489.24.984.717 1.484.395.412.717.893.717 1.068 0 .175.265.385.589.466.324.082.652.349.73.594.085.268.459.505.936.595.521.098.885.348 1.057.726.145.318.346.565.447.548.545-.088 1.013.061.96.306-.076.356.959.908 1.71.912.316.002.927.273 1.358.601.467.357 1.103.599 1.576.601.691.003 1.901.455 1.27.475-.131.004-.077.111.12.238.197.128 1.245.234 2.33.236 1.773.003 1.971.049 1.971.456 0 .635.24.683 3.624.727l3.009.038.095-.668c.182-1.286.018-1.505-1.13-1.505-.981 0-1.184-.145-1.088-.773.031-.202-.689-.385-1.882-.477-.544-.042-.813-.175-.77-.381.036-.174-.036-.254-.16-.177-.124.077-.388-.023-.586-.221a1.426 1.426 0 0 0-.877-.361c-.285 0-.695-.193-.914-.429-.218-.236-.343-.312-.277-.168s-.059.068-.277-.168c-.218-.236-.61-.43-.87-.43-.306 0-.527-.211-.623-.596-.083-.327-.229-.583-.325-.569-.641.099-.772-.106-.772-1.207 0-1.04.063-1.188.537-1.255.326-.046.565-.268.607-.561.039-.267.308-.59.598-.717.324-.143.557-.487.604-.893.042-.366.183-.595.315-.514.131.081.295-.071.365-.338s.285-.545.477-.619c.193-.074.283-.243.201-.375-.081-.133-.025-.241.126-.241s.745-.484 1.32-1.075c.574-.592.982-1.075.905-1.075-.077 0-.006-.162.157-.359.164-.197.54-.358.837-.358.557 0 1.181-.531.925-.787-.08-.08.132-.216.472-.301.339-.085.68-.353.757-.596.077-.244.35-.509.606-.59.256-.082.58-.361.719-.621.14-.261.516-.573.836-.695.321-.122.583-.386.583-.586 0-.247.235-.364.728-.364.449 0 .931-.212 1.255-.551.289-.302.986-.684 1.549-.848.562-.163.963-.392.892-.508-.18-.291.154-.46 1.039-.527.412-.032.75-.148.75-.26 0-.111.107-.135.239-.054.131.081.239-.074.239-.345 0-.392.157-.495.776-.508 1.035-.023 1.733-.315 1.733-.724 0-.225.345-.36 1.047-.41 1.101-.079 2.267-.664 2.043-1.026-.072-.117.332-.215.898-.216 1.442-.005 2.042-.207 2.18-.736.102-.389.345-.456 1.65-.456 1.257 0 1.633-.096 2.107-.537.47-.439.948-.563 2.588-.674 1.665-.112 2.083-.223 2.423-.644.356-.44.691-.514 2.475-.554 1.135-.025 2.063-.145 2.063-.266 0-.121.095-.161.212-.089.116.071.267-.083.336-.345.112-.428.329-.475 2.195-.475 2.037 0 2.753-.244 2.753-.939 0-.167.959-.256 2.77-.256 2.569 0 2.779-.034 2.895-.478.111-.422.339-.481 1.949-.505 2.019-.031 1.984-.027 3.079-.297.427-.105.776-.344.776-.531 0-.255.372-.344 1.494-.359 2.313-.031 3.31-.234 4.002-.816.277-.232 2.355-.552 3.855-.594.083-.002.208-.219.277-.482.104-.4.333-.48 1.401-.494 2.059-.027 2.691-.17 3.039-.689.273-.409.582-.49 1.862-.49 1.31 0 1.621-.085 2.12-.584.422-.423.898-.604 1.721-.657.912-.058 1.184-.179 1.373-.61.201-.459.419-.538 1.48-.538.683 0 1.311-.109 1.393-.243.083-.133.25-.181.373-.105.122.075.222-.084.222-.355 0-.404.151-.492.852-.492 1.016 0 1.777-.361 1.777-.844 0-.261.304-.351 1.194-.351 1.079 0 1.195-.052 1.199-.537.003-.425.05-.464.226-.186.19.301.245.293.38-.06a.687.687 0 0 1 .591-.411c.749 0 1.188-.274 1.188-.743 0-.375.18-.452 1.05-.452.913 0 1.068-.076 1.196-.583.117-.469.321-.598 1.041-.657.658-.055.958-.217 1.131-.612.145-.33.445-.537.777-.537.381 0 .54-.141.54-.478 0-.336.161-.479.538-.482 1.014-.006 1.65-.301 1.864-.865.128-.337.41-.565.699-.565.324 0 .483-.157.483-.478 0-.31.16-.478.453-.478.249 0 .773-.299 1.164-.664.391-.366.994-.793 1.34-.951.345-.157.628-.45.628-.65s.171-.363.38-.363c.21 0 .438-.215.506-.478.069-.263.326-.478.571-.478.276 0 .502-.227.595-.597.095-.377.319-.598.607-.598.256 0 .577-.263.729-.597.15-.329.414-.597.587-.597.172 0 .48-.322.683-.716.204-.393.5-.689.658-.657.158.032.325-.184.37-.479.05-.332.249-.538.52-.538.268 0 .531-.268.68-.694.133-.382.467-.766.743-.854.276-.087.446-.25.377-.361-.069-.112.037-.365.235-.564.199-.198.361-.482.361-.63 0-.149.096-.211.214-.138.242.149.503-.402.503-1.063 0-.276.201-.47.537-.518.346-.049.565-.269.614-.614.042-.296.219-.538.393-.538.397 0 .754-.72.815-1.646.018-.27.272-.513.628-.602.436-.11.597-.31.597-.743 0-.535.23-.713.794-.615.109.019.134-.069.056-.194-.078-.126-.052-.284.056-.351.109-.067.223-.606.254-1.197.073-1.416-.731-1.884-2.274-1.323" fill="#00b04c"/><path d="M357.228 90.744c0 1.446-.056 1.641-.537 1.852-.414.181-.555.467-.611 1.236-.06.821-.167 1.014-.597 1.075a.677.677 0 0 0-.598.588c-.04.283-.29.57-.555.64-.266.069-.541.349-.612.621-.071.273-.321.496-.554.496-.253 0-.484.241-.574.597-.101.402-.315.598-.656.598-.278 0-.754.269-1.059.597-.304.329-.768.598-1.029.598-.262 0-.617.198-.788.441-.172.243-.728.519-1.235.613-.624.116-.962.322-1.044.636-.084.321-.408.509-1.057.613-.548.088-1.08.354-1.281.642-.204.291-.658.515-1.114.55-.429.033-.933.269-1.14.534-.318.407-1.19.706-2.342.804-.165.014-.299.212-.299.441 0 .316-.28.454-1.172.577-.874.12-1.202.278-1.292.619-.093.357-.334.459-1.082.459-1.23 0-2.189.364-2.189.83 0 .272-.269.365-1.057.365-.778 0-1.243.157-1.767.597-.43.363-1.008.598-1.467.598-.906 0-1.682.374-1.682.81 0 .215-.509.363-1.596.464-1.48.138-2.125.462-1.839.924.064.105-.319.191-.852.191-1.267 0-1.257-.003-1.764.641-.35.445-.667.554-1.608.554-.986 0-1.234.094-1.563.597-.32.488-.585.598-1.447.598-.717 0-1.099.114-1.193.358-.075.197-.293.358-.484.358s-.284.102-.207.227c.079.128-.405.257-1.121.298-1.041.06-1.302.167-1.497.61-.2.457-.419.538-1.461.538-.856 0-1.405.141-1.823.47-.328.258-1.056.543-1.617.633-.68.109-1.056.302-1.129.581-.074.286-.449.47-1.177.579-.605.091-1.126.314-1.204.515a.373.373 0 0 1-.476.225c-.188-.072-.275-.025-.194.106.08.13.059.247-.047.26-.107.013-.5.051-.874.084-.375.033-.763.193-.863.355-.101.162-.278.313-.395.334-.117.022-.187.114-.157.205.03.091-.43.238-1.022.327-.694.104-1.163.322-1.318.611-.16.298-.502.45-1.016.45-.845 0-1.927.616-1.707.972.076.122-.111.223-.414.223-.304 0-.864.269-1.246.597-.382.329-.945.597-1.25.597-.386 0-.599.174-.699.57-.111.444-.355.604-1.104.724-.667.106-.997.293-1.08.611-.066.252-.351.491-.633.531-.283.04-.62.315-.75.611-.146.333-.444.538-.785.538-.656 0-1.775.683-1.595.974.07.114-.146.275-.48.359-.373.093-.607.32-.607.587 0 .27-.205.465-.538.512-.346.049-.565.269-.614.614-.042.296-.189.538-.327.538-.32 0-2.106 1.777-2.106 2.095 0 .131-.268.415-.597.631-.448.293-.597.599-.597 1.222 0 .546-.113.831-.33.831-.563 0-.835.564-.894 1.859-.046 1.006-.164 1.319-.611 1.611-.877.575-.852 5.964.032 6.794.463.436.601.833.657 1.894.059 1.127.157 1.38.608 1.578.3.132.538.448.539.717.001.283.296.648.717.888.393.224.715.317.715.206 0-.11.373-.377.829-.594.738-.349.847-.524.986-1.575.087-.651.245-1.129.351-1.063.107.066.529-.366.937-.96.409-.594.846-1.08.971-1.08s.227-.162.227-.359a.35.35 0 0 1 .339-.358c.186 0 .376-.114.422-.252.047-.139.297-.281.558-.317.26-.036.58-.299.709-.585.156-.343.451-.519.869-.519.419 0 .672-.152.75-.452.081-.31.424-.504 1.093-.617.66-.111 1.022-.313 1.121-.623.08-.252.353-.472.607-.488.254-.017.569-.057.701-.09.131-.033.615-.073 1.075-.09.555-.019.836-.145.836-.374 0-.457.26-.595 1.434-.759a38.83 38.83 0 0 0 1.388-.216c.222-.043.491-.086.598-.096.106-.01.131-.118.055-.241-.204-.331.234-.52 1.492-.641 1.861-.179 2.082-.242 2.082-.593 0-.235.358-.354 1.195-.398 1.674-.087 2.194-.234 2.682-.757.32-.344.806-.469 1.978-.51 1.708-.06 2.389-.296 2.389-.829 0-.268.332-.35 1.418-.35 1.523 0 2.611-.299 3.016-.83.167-.218.856-.349 2.025-.387 1.478-.048 1.872-.15 2.374-.615.455-.422.892-.562 1.798-.576 1.832-.028 2.95-.42 2.638-.926-.059-.095.543-.196 1.336-.225.794-.028 1.73-.161 2.081-.294.351-.134.692-.235.757-.226.066.009.12-.118.12-.282 0-.195.455-.32 1.314-.361 1.666-.078 2.444-.254 2.283-.515-.253-.408.496-.696 2.018-.775 1.4-.073 1.561-.135 1.63-.619.066-.47.218-.538 1.194-.541 1.525-.004 2.152-.204 2.322-.739.109-.345.371-.452 1.104-.452.663 0 1.085-.147 1.358-.471.254-.301.828-.523 1.592-.614.713-.085 1.345-.317 1.568-.576.205-.238.736-.512 1.18-.609.443-.098.984-.398 1.202-.667.218-.269.588-.517.821-.552.751-.11 1.797-.623 1.675-.821-.065-.105.218-.265.63-.356.443-.097.796-.348.866-.617.073-.28.33-.452.674-.452.305 0 .623-.109.705-.243a.283.283 0 0 1 .389-.095c.131.081.295-.07.364-.335s.385-.546.701-.626c.356-.089.575-.318.575-.601 0-.291.194-.484.537-.533.341-.048.565-.268.612-.599a.676.676 0 0 1 .598-.597.676.676 0 0 0 .597-.598.676.676 0 0 1 .598-.597c.311-.045.551-.271.592-.56.038-.267.304-.589.59-.717.307-.136.582-.536.67-.97.081-.406.38-.971.664-1.254.283-.284.515-.731.515-.994s.084-.478.185-.478c.331 0 .993-1.531 1.062-2.454.037-.496.158-.872.267-.837.584.19.876-1.657.876-5.548 0-4.579-.124-5.513-.753-5.677-.366-.096-.442-.355-.442-1.51 0-1.562-.374-2.637-.853-2.453-.195.075-.304-.046-.286-.318.085-1.297-.579-3.095-1.038-2.811-.117.072-.212-.198-.212-.6 0-.707-.035-.731-1.076-.731h-1.075v1.616" fill="#6dbe45"/><path d="M351.364 51.39c-.086.14-.1.312-.03.382.171.171.637-.13.637-.412 0-.306-.412-.285-.607.03" fill="#0f0"/></g></svg>