<svg id="svg" version="1.1" width="400" height="238.82352941176472" viewBox="0 0 400 238.82352941176472" xmlns="http://www.w3.org/2000/svg" xmlns:xlink="http://www.w3.org/1999/xlink" ><g id="svgg"><path id="path0" d="M300.362 70.413 C 300.369 70.779,300.809 71.313,300.971 71.151 C 301.060 71.063,300.958 70.816,300.745 70.604 C 300.533 70.391,300.360 70.305,300.362 70.413 M308.329 71.432 C 308.705 71.556,309.215 71.841,309.464 72.066 C 309.713 72.291,309.916 72.364,309.916 72.229 C 309.916 71.823,309.324 71.456,308.460 71.327 C 307.678 71.211,307.673 71.215,308.329 71.432 M323.366 74.134 C 323.657 74.430,323.937 74.573,323.987 74.453 C 324.038 74.333,323.883 74.091,323.643 73.916 C 322.953 73.411,322.785 73.543,323.366 74.134 M333.572 76.802 C 333.572 77.010,333.743 77.180,333.951 77.180 C 334.159 77.180,334.286 77.053,334.234 76.897 C 334.087 76.454,333.572 76.380,333.572 76.802 M337.529 77.519 C 338.029 77.885,338.256 77.845,338.003 77.435 C 337.916 77.295,337.670 77.180,337.455 77.180 C 337.129 77.180,337.141 77.236,337.529 77.519 M275.112 77.788 C 274.890 78.368,275.150 78.424,275.626 77.899 C 276.022 77.461,276.024 77.419,275.657 77.419 C 275.435 77.419,275.190 77.585,275.112 77.788 M271.685 80.287 C 271.468 80.692,271.503 80.765,271.915 80.765 C 272.242 80.765,272.401 80.608,272.401 80.287 C 272.401 80.024,272.298 79.809,272.171 79.809 C 272.044 79.809,271.825 80.024,271.685 80.287 M347.241 81.232 C 347.571 81.760,347.803 81.694,347.588 81.133 C 347.510 80.931,347.334 80.765,347.198 80.765 C 347.041 80.765,347.056 80.936,347.241 81.232 M268.817 82.887 C 268.817 83.003,268.602 83.155,268.339 83.223 C 268.076 83.292,267.863 83.493,267.865 83.669 C 267.867 83.880,267.929 83.902,268.044 83.734 C 268.141 83.593,268.408 83.408,268.638 83.323 C 269.009 83.187,269.244 82.676,268.937 82.676 C 268.871 82.676,268.817 82.771,268.817 82.887 M273.809 95.281 C 273.964 95.576,274.266 95.818,274.481 95.818 C 274.695 95.818,274.826 95.790,274.771 95.756 C 274.716 95.722,274.414 95.480,274.099 95.218 L 273.527 94.743 273.809 95.281 M351.194 96.424 C 351.084 97.002,351.099 97.012,351.525 96.626 C 352.053 96.148,352.101 95.818,351.641 95.818 C 351.459 95.818,351.258 96.091,351.194 96.424 M296.057 98.546 C 296.057 98.919,296.672 99.486,296.945 99.365 C 297.048 99.320,296.891 99.045,296.595 98.754 C 296.249 98.413,296.057 98.339,296.057 98.546 M347.670 98.596 C 347.670 98.913,347.735 98.929,348.029 98.686 C 348.226 98.522,348.387 98.348,348.387 98.298 C 348.387 98.248,348.226 98.208,348.029 98.208 C 347.832 98.208,347.670 98.382,347.670 98.596 M345.688 100.008 C 345.272 100.579,345.371 100.774,345.896 100.415 C 346.212 100.198,346.524 99.400,346.289 99.410 C 346.194 99.414,345.924 99.683,345.688 100.008 M307.766 100.007 C 307.766 100.209,307.932 100.437,308.135 100.515 C 308.675 100.722,308.703 100.536,308.204 100.060 C 307.833 99.706,307.766 99.698,307.766 100.007 M313.895 100.962 C 314.022 101.294,314.707 101.792,315.036 101.792 C 315.110 101.792,314.936 101.523,314.651 101.195 C 314.069 100.526,313.681 100.407,313.895 100.962 M343.437 101.254 C 342.856 101.845,343.025 101.977,343.715 101.473 C 343.955 101.297,344.110 101.055,344.059 100.935 C 344.008 100.815,343.728 100.959,343.437 101.254 M340.442 102.398 C 340.334 102.962,340.359 102.981,340.819 102.676 C 341.493 102.228,341.596 101.792,341.027 101.792 C 340.714 101.792,340.519 101.994,340.442 102.398 M318.594 104.839 C 318.512 105.069,318.400 105.364,318.344 105.496 C 318.289 105.627,318.413 105.526,318.620 105.271 C 318.827 105.016,319.131 104.722,319.295 104.618 C 319.507 104.483,319.470 104.427,319.168 104.424 C 318.934 104.422,318.675 104.609,318.594 104.839 M311.938 115.667 C 311.851 115.807,311.837 115.979,311.908 116.049 C 312.079 116.221,312.545 115.919,312.545 115.637 C 312.545 115.332,312.132 115.352,311.938 115.667 M355.795 118.667 C 355.795 118.985,355.859 119.001,356.153 118.757 C 356.350 118.594,356.511 118.419,356.511 118.370 C 356.511 118.320,356.350 118.280,356.153 118.280 C 355.956 118.280,355.795 118.454,355.795 118.667 M291.995 125.090 C 291.752 125.383,291.768 125.448,292.085 125.448 C 292.299 125.448,292.473 125.287,292.473 125.090 C 292.473 124.892,292.433 124.731,292.383 124.731 C 292.333 124.731,292.159 124.892,291.995 125.090 " stroke="none" fill="#000000" fill-rule="evenodd"></path><path id="path1" d="M259.797 132.536 C 259.633 132.602,259.498 132.862,259.498 133.114 C 259.498 133.533,259.306 133.572,257.256 133.572 C 255.127 133.572,254.993 133.603,254.622 134.170 C 254.255 134.730,254.102 134.767,252.194 134.767 C 250.350 134.767,250.102 134.823,249.571 135.354 C 249.073 135.851,248.719 135.952,247.252 136.011 L 245.520 136.081 245.456 142.473 L 245.392 148.865 242.099 148.865 C 237.831 148.865,238.232 148.081,238.232 156.420 C 238.232 165.096,237.780 164.158,241.961 164.158 L 245.400 164.158 245.400 182.900 C 245.400 201.571,245.453 202.867,246.218 202.867 C 246.474 202.867,246.590 203.209,246.642 204.122 C 246.705 205.215,246.784 205.386,247.252 205.453 C 247.716 205.519,247.790 205.672,247.790 206.571 C 247.790 207.470,247.864 207.624,248.327 207.689 C 248.772 207.753,248.886 207.952,248.984 208.841 C 249.083 209.730,249.197 209.930,249.642 209.993 C 250.031 210.048,250.179 210.229,250.179 210.650 C 250.179 211.069,250.311 211.231,250.653 211.231 C 250.958 211.231,251.179 211.442,251.276 211.828 C 251.407 212.350,251.556 212.425,252.459 212.425 C 253.348 212.425,253.502 212.500,253.568 212.963 C 253.633 213.421,253.811 213.511,254.764 213.573 C 255.709 213.634,255.896 213.727,255.959 214.170 L 256.033 214.695 265.178 214.758 L 274.323 214.821 274.551 214.220 C 274.690 213.855,274.966 213.620,275.258 213.620 C 275.975 213.620,276.014 213.169,275.937 205.806 C 275.883 200.679,275.792 198.993,275.556 198.757 C 275.330 198.531,274.050 198.427,270.837 198.372 L 266.428 198.298 266.428 197.704 C 266.428 197.377,266.163 196.864,265.839 196.564 C 265.288 196.054,265.245 195.839,265.181 193.290 C 265.117 190.721,265.082 190.548,264.576 190.326 L 264.038 190.090 264.038 177.124 L 264.038 164.158 270.112 164.158 C 273.452 164.158,276.356 164.092,276.563 164.013 C 277.068 163.819,277.145 149.503,276.643 149.178 C 276.478 149.071,273.575 148.951,270.191 148.910 L 264.038 148.836 264.038 140.607 L 264.038 132.378 262.067 132.396 C 260.983 132.407,259.961 132.470,259.797 132.536 M42.358 148.387 C 41.992 148.815,41.653 148.865,39.119 148.865 C 36.335 148.865,35.457 149.053,35.054 149.736 C 34.949 149.914,34.501 150.060,34.058 150.060 C 32.943 150.060,32.497 150.272,32.497 150.802 C 32.497 151.105,32.328 151.254,31.987 151.254 C 31.706 151.254,31.227 151.523,30.923 151.852 C 30.618 152.180,30.212 152.449,30.019 152.449 C 29.349 152.449,28.913 152.742,28.913 153.192 C 28.913 153.515,28.742 153.644,28.315 153.644 C 27.854 153.644,27.718 153.767,27.718 154.185 C 27.718 154.516,27.510 154.817,27.180 154.961 C 26.765 155.143,26.626 155.429,26.569 156.213 C 26.504 157.110,26.428 157.228,25.912 157.228 C 25.457 157.228,25.329 157.353,25.329 157.798 C 25.329 158.151,25.161 158.411,24.887 158.483 C 24.456 158.595,24.134 159.535,24.134 160.681 C 24.134 160.970,23.865 161.460,23.536 161.768 L 22.939 162.329 22.939 168.989 L 22.939 175.648 23.509 176.262 C 23.833 176.612,24.135 177.301,24.210 177.862 C 24.289 178.448,24.543 179.010,24.836 179.247 C 25.107 179.467,25.329 179.871,25.329 180.146 C 25.329 180.519,25.479 180.645,25.926 180.645 C 26.404 180.645,26.523 180.765,26.523 181.243 C 26.523 181.720,26.643 181.840,27.121 181.840 C 27.599 181.840,27.718 181.959,27.718 182.437 C 27.718 182.915,27.838 183.035,28.315 183.035 C 28.793 183.035,28.913 183.154,28.913 183.632 C 28.913 184.110,29.032 184.229,29.510 184.229 C 29.988 184.229,30.108 184.349,30.108 184.827 C 30.108 185.300,30.228 185.424,30.688 185.424 C 31.109 185.424,31.290 185.573,31.345 185.962 C 31.404 186.373,31.603 186.517,32.193 186.574 C 32.662 186.619,33.142 186.876,33.422 187.231 C 33.674 187.551,34.106 187.814,34.383 187.814 C 34.718 187.814,34.886 187.965,34.886 188.266 C 34.886 188.779,35.331 189.008,36.323 189.008 C 36.847 189.008,37.021 189.132,37.080 189.546 C 37.129 189.887,37.349 190.111,37.683 190.159 C 37.972 190.200,38.275 190.442,38.356 190.696 C 38.437 190.951,38.713 191.159,38.971 191.159 C 39.250 191.159,39.530 191.400,39.665 191.756 C 39.790 192.085,40.049 192.354,40.240 192.354 C 40.432 192.354,40.622 192.596,40.664 192.891 C 40.713 193.237,40.933 193.456,41.278 193.505 C 41.794 193.579,41.816 193.676,41.816 195.938 C 41.816 198.199,41.794 198.297,41.278 198.370 C 40.933 198.420,40.713 198.639,40.664 198.984 C 40.547 199.809,32.521 199.830,31.975 199.008 C 31.712 198.612,31.324 198.468,30.280 198.382 C 29.226 198.294,28.895 198.170,28.784 197.821 C 28.599 197.236,27.956 197.092,25.921 197.180 L 24.253 197.252 24.179 198.420 C 24.125 199.275,23.965 199.702,23.582 200.012 C 23.132 200.376,23.047 200.723,22.974 202.488 C 22.928 203.617,22.796 204.540,22.682 204.540 C 22.072 204.540,21.744 206.031,21.744 208.810 C 21.744 212.372,21.764 212.425,23.058 212.425 C 23.951 212.425,24.101 212.502,24.232 213.023 C 24.374 213.588,24.471 213.620,26.033 213.620 C 27.564 213.620,27.690 213.659,27.761 214.158 L 27.838 214.695 36.591 214.758 L 45.344 214.821 45.910 214.224 C 46.357 213.754,46.714 213.627,47.611 213.624 C 48.661 213.620,48.746 213.575,48.746 213.023 C 48.746 212.465,48.825 212.425,49.940 212.425 C 51.055 212.425,51.135 212.386,51.135 211.828 C 51.135 211.290,51.230 211.231,52.096 211.231 C 52.884 211.231,53.105 211.125,53.323 210.646 C 53.470 210.324,53.817 210.028,54.095 209.988 C 54.403 209.944,54.629 209.712,54.674 209.393 C 54.721 209.068,54.946 208.842,55.272 208.796 C 55.594 208.750,55.823 208.525,55.868 208.208 C 55.908 207.926,56.147 207.641,56.399 207.575 C 56.713 207.493,56.903 207.164,57.006 206.522 C 57.108 205.885,57.318 205.518,57.669 205.363 C 58.059 205.192,58.202 204.891,58.257 204.122 C 58.298 203.563,58.425 203.106,58.539 203.106 C 59.136 203.106,59.498 202.288,59.498 200.939 C 59.498 199.854,59.580 199.522,59.848 199.522 C 60.937 199.522,61.149 192.215,60.096 190.964 C 59.603 190.378,59.498 190.001,59.498 188.814 C 59.498 187.067,59.347 186.619,58.756 186.619 C 58.386 186.619,58.303 186.441,58.303 185.647 C 58.303 184.655,57.985 183.820,57.445 183.393 C 57.279 183.262,57.108 182.885,57.066 182.557 C 57.014 182.149,56.819 181.935,56.452 181.883 C 56.062 181.828,55.914 181.646,55.914 181.226 C 55.914 180.766,55.790 180.645,55.317 180.645 C 54.959 180.645,54.719 180.509,54.719 180.305 C 54.719 179.805,53.323 178.495,52.789 178.495 C 52.458 178.495,52.330 178.327,52.330 177.897 C 52.330 177.419,52.210 177.300,51.732 177.300 C 51.254 177.300,51.135 177.180,51.135 176.703 C 51.135 176.229,51.014 176.105,50.554 176.105 C 50.134 176.105,49.952 175.957,49.897 175.568 C 49.832 175.109,49.654 175.019,48.686 174.957 C 47.661 174.891,47.551 174.827,47.551 174.300 C 47.551 173.816,47.433 173.716,46.867 173.716 C 46.417 173.716,46.031 173.512,45.735 173.118 C 45.489 172.790,45.055 172.521,44.772 172.521 C 44.422 172.521,44.209 172.329,44.107 171.924 C 44.010 171.535,43.790 171.326,43.478 171.326 C 43.187 171.326,42.910 171.092,42.772 170.729 C 42.647 170.400,42.393 170.131,42.208 170.131 C 42.023 170.131,41.813 169.908,41.742 169.636 C 41.671 169.363,41.389 169.082,41.117 169.011 C 40.344 168.808,40.410 166.800,41.219 165.927 C 41.547 165.573,41.816 165.030,41.816 164.720 C 41.816 164.199,41.910 164.158,43.113 164.158 C 44.354 164.158,45.161 163.774,45.161 163.185 C 45.161 162.659,46.561 162.958,46.638 163.501 C 46.708 163.993,46.858 164.044,48.432 164.108 C 49.995 164.172,50.155 164.225,50.224 164.706 C 50.295 165.208,50.423 165.236,52.908 165.301 C 56.012 165.382,55.905 165.476,55.910 162.664 C 55.914 160.773,55.957 160.573,56.366 160.573 C 56.990 160.573,57.109 160.130,57.109 157.806 C 57.109 156.163,57.175 155.795,57.473 155.795 C 58.425 155.795,58.644 151.440,57.699 151.304 C 57.432 151.266,57.109 150.997,56.982 150.707 C 56.798 150.287,56.518 150.164,55.615 150.106 C 54.809 150.055,54.480 149.932,54.480 149.682 C 54.480 149.048,53.309 148.865,49.236 148.865 C 45.418 148.865,45.211 148.841,45.092 148.387 C 44.990 147.997,44.766 147.909,43.867 147.909 C 43.063 147.909,42.657 148.038,42.358 148.387 M95.102 148.387 C 94.870 148.820,94.601 148.865,92.245 148.865 C 89.324 148.865,88.889 148.961,88.889 149.607 C 88.889 149.984,88.709 150.060,87.818 150.060 C 86.889 150.060,86.729 150.135,86.604 150.630 C 86.493 151.074,86.250 151.233,85.500 151.353 C 84.840 151.459,84.503 151.648,84.422 151.958 C 84.357 152.206,84.052 152.472,83.745 152.549 C 83.437 152.626,83.118 152.904,83.034 153.167 C 82.951 153.429,82.726 153.644,82.533 153.644 C 82.341 153.644,82.106 153.832,82.012 154.062 C 81.917 154.292,81.786 153.302,81.720 151.862 C 81.604 149.316,81.584 149.239,81.004 149.078 C 80.259 148.872,65.554 148.818,64.804 149.018 L 64.256 149.165 64.326 155.608 C 64.396 161.960,64.404 162.056,64.934 162.485 L 65.472 162.920 65.472 188.870 L 65.472 214.820 74.731 214.758 L 83.990 214.695 84.051 192.908 L 84.112 171.120 84.649 171.044 C 85.136 170.975,85.192 170.819,85.256 169.355 C 85.323 167.821,85.355 167.742,85.913 167.742 C 86.375 167.742,86.499 167.618,86.499 167.161 C 86.499 166.741,86.648 166.559,87.037 166.504 C 87.383 166.455,87.602 166.236,87.651 165.890 C 87.724 165.374,87.821 165.352,90.100 165.352 L 92.473 165.352 92.477 166.129 C 92.481 167.021,92.660 167.355,93.250 167.573 C 93.633 167.714,93.668 168.240,93.668 173.914 C 93.668 180.228,93.876 182.471,94.505 182.940 C 94.811 183.168,94.868 185.367,94.921 198.950 L 94.982 214.695 103.774 214.758 C 109.563 214.799,112.725 214.735,113.033 214.570 C 113.492 214.325,113.501 213.915,113.501 192.242 L 113.501 170.165 114.038 170.088 C 114.495 170.023,114.587 169.845,114.648 168.902 C 114.705 168.022,114.820 167.765,115.203 167.665 C 115.469 167.595,115.744 167.319,115.814 167.051 C 115.884 166.782,116.140 166.500,116.382 166.423 C 116.623 166.347,116.888 166.074,116.969 165.818 C 117.200 165.092,120.552 165.119,120.743 165.848 C 120.814 166.121,121.090 166.400,121.355 166.470 C 121.620 166.539,121.870 166.827,121.910 167.109 C 121.955 167.422,122.184 167.651,122.497 167.696 C 123.010 167.769,123.011 167.774,123.095 176.656 C 123.178 185.298,123.195 185.574,123.717 186.635 L 124.253 187.726 124.253 201.273 L 124.253 214.820 133.513 214.758 L 142.772 214.695 142.772 191.836 L 142.772 168.977 142.234 168.249 C 141.738 167.578,141.697 167.270,141.697 164.224 C 141.697 160.985,141.686 160.918,141.099 160.477 C 140.581 160.088,140.502 159.843,140.502 158.628 C 140.502 157.294,140.474 157.228,139.904 157.228 C 139.347 157.228,139.307 157.149,139.307 156.033 C 139.307 155.012,139.240 154.839,138.846 154.839 C 138.549 154.839,138.357 154.647,138.308 154.301 C 138.259 153.956,138.040 153.736,137.694 153.687 C 137.398 153.645,137.157 153.453,137.157 153.261 C 137.157 152.812,135.606 151.254,135.159 151.254 C 134.972 151.254,134.751 150.986,134.669 150.657 C 134.537 150.133,134.390 150.060,133.465 150.060 C 132.554 150.060,132.400 149.987,132.334 149.522 C 132.262 149.014,132.135 148.981,130.004 148.915 C 128.083 148.856,127.701 148.777,127.422 148.378 C 126.941 147.691,124.279 147.698,123.656 148.387 C 123.280 148.802,122.920 148.865,120.913 148.865 C 118.789 148.865,118.559 148.911,118.068 149.433 C 117.740 149.782,117.151 150.052,116.536 150.135 C 115.960 150.212,115.376 150.467,115.158 150.736 C 114.950 150.993,114.573 151.242,114.319 151.290 C 114.066 151.338,113.753 151.618,113.623 151.913 C 113.493 152.208,113.198 152.449,112.966 152.449 C 112.676 152.449,112.545 152.635,112.545 153.047 C 112.545 153.524,112.425 153.644,111.947 153.644 C 111.470 153.644,111.350 153.763,111.350 154.241 C 111.350 154.715,111.230 154.839,110.769 154.839 C 110.318 154.839,110.165 154.986,110.088 155.496 C 110.033 155.857,109.972 155.588,109.952 154.898 C 109.919 153.729,109.876 153.644,109.319 153.644 C 108.841 153.644,108.722 153.524,108.722 153.047 C 108.722 152.616,108.593 152.449,108.260 152.449 C 107.964 152.449,107.772 152.257,107.723 151.912 C 107.677 151.586,107.455 151.346,107.161 151.304 C 106.894 151.266,106.572 150.997,106.444 150.707 C 106.270 150.310,105.974 150.162,105.249 150.108 C 104.524 150.055,104.228 149.907,104.054 149.511 C 103.834 149.009,103.665 148.981,100.489 148.918 C 97.530 148.858,97.106 148.798,96.716 148.380 C 96.153 147.775,95.427 147.778,95.102 148.387 M168.164 148.387 C 167.894 148.821,167.607 148.865,165.086 148.865 C 161.647 148.865,160.812 149.011,160.812 149.612 C 160.812 150.006,160.617 150.060,159.175 150.060 C 157.759 150.060,157.450 150.141,156.892 150.657 C 156.436 151.080,155.978 151.254,155.324 151.254 C 154.092 151.254,153.644 151.452,153.644 151.997 C 153.644 152.317,153.474 152.449,153.062 152.449 C 151.554 152.449,151.254 152.787,151.254 154.490 C 151.254 156.146,151.531 156.989,152.075 156.989 C 152.318 156.989,152.422 157.512,152.485 159.051 C 152.560 160.874,152.632 161.155,153.107 161.470 C 153.576 161.781,153.644 162.032,153.644 163.452 C 153.644 165.765,154.403 166.547,156.649 166.547 C 158.127 166.547,158.184 166.525,158.184 165.950 C 158.184 165.391,158.263 165.352,159.394 165.352 C 160.738 165.352,161.529 165.039,161.529 164.508 C 161.529 164.232,161.906 164.158,163.317 164.158 C 165.024 164.158,165.111 164.131,165.254 163.560 C 165.477 162.671,170.049 162.616,170.175 163.501 C 170.240 163.958,170.418 164.049,171.371 164.110 C 172.316 164.171,172.503 164.265,172.566 164.708 C 172.613 165.041,172.837 165.261,173.178 165.309 C 173.510 165.356,173.716 165.552,173.716 165.819 C 173.716 166.057,173.922 166.306,174.173 166.372 C 174.426 166.438,174.667 166.745,174.711 167.057 C 174.764 167.430,174.974 167.648,175.329 167.699 C 175.803 167.766,175.866 167.913,175.866 168.953 L 175.866 170.131 174.851 170.135 C 173.428 170.139,172.799 170.349,172.632 170.874 C 172.501 171.287,172.220 171.326,169.387 171.326 C 166.386 171.326,166.268 171.345,165.732 171.924 C 165.320 172.368,164.935 172.521,164.225 172.521 C 163.545 172.521,163.091 172.688,162.641 173.105 C 162.195 173.519,161.680 173.711,160.874 173.762 C 159.963 173.821,159.690 173.942,159.501 174.373 C 159.326 174.773,159.065 174.910,158.481 174.910 C 157.875 174.910,157.634 175.047,157.424 175.508 C 157.246 175.897,156.957 176.105,156.592 176.105 C 156.155 176.105,156.033 176.236,156.033 176.703 C 156.033 177.180,155.914 177.300,155.436 177.300 C 154.958 177.300,154.839 177.419,154.839 177.897 C 154.839 178.375,154.719 178.495,154.241 178.495 C 153.763 178.495,153.644 178.614,153.644 179.092 C 153.644 179.570,153.524 179.689,153.047 179.689 C 152.616 179.689,152.449 179.818,152.449 180.151 C 152.449 180.447,152.257 180.639,151.912 180.688 C 151.527 180.743,151.352 180.951,151.298 181.422 C 151.254 181.804,151.077 182.079,150.874 182.079 C 150.481 182.079,150.060 183.013,150.060 183.887 C 150.060 184.298,149.927 184.468,149.607 184.468 C 149.027 184.468,148.865 184.917,148.865 186.519 C 148.865 187.497,148.779 187.814,148.515 187.814 C 147.778 187.814,147.670 188.740,147.670 195.056 C 147.670 202.074,147.746 202.867,148.417 202.867 C 148.807 202.867,148.865 203.061,148.869 204.361 C 148.873 205.961,148.987 206.280,149.642 206.521 C 149.872 206.606,150.060 206.894,150.060 207.161 C 150.060 207.519,150.216 207.646,150.657 207.646 C 151.083 207.646,151.254 207.776,151.254 208.096 C 151.254 208.798,154.784 212.425,155.467 212.425 C 155.912 212.425,156.033 212.554,156.033 213.023 C 156.033 213.580,156.113 213.620,157.228 213.620 C 158.343 213.620,158.423 213.660,158.423 214.217 L 158.423 214.815 165.488 214.815 C 172.488 214.815,173.477 214.714,173.477 214.001 C 173.477 213.811,173.876 213.617,174.457 213.524 C 175.141 213.415,175.473 213.230,175.556 212.910 C 175.629 212.633,175.926 212.423,176.309 212.379 C 176.744 212.329,176.964 212.146,177.014 211.794 C 177.190 210.565,178.227 210.957,178.304 212.281 C 178.365 213.327,178.450 213.511,178.898 213.575 C 179.224 213.621,179.449 213.847,179.495 214.172 L 179.570 214.695 187.559 214.758 C 193.791 214.808,195.589 214.755,195.739 214.519 C 195.968 214.158,196.006 178.334,195.780 175.154 C 195.647 173.276,195.555 172.916,195.183 172.819 C 194.776 172.713,194.743 172.379,194.743 168.415 C 194.743 164.150,194.592 163.202,193.909 163.202 C 193.657 163.202,193.552 162.789,193.500 161.589 C 193.438 160.181,193.361 159.946,192.891 159.740 C 192.455 159.549,192.354 159.313,192.354 158.490 C 192.354 157.608,192.276 157.457,191.756 157.326 C 191.327 157.219,191.159 157.015,191.159 156.605 C 191.159 156.155,191.032 156.033,190.562 156.033 C 190.080 156.033,189.964 155.915,189.964 155.420 C 189.964 154.690,189.571 153.883,189.215 153.883 C 189.076 153.883,188.660 153.560,188.292 153.166 C 187.889 152.735,187.381 152.449,187.018 152.449 C 186.574 152.449,186.393 152.307,186.337 151.914 C 186.294 151.613,186.059 151.340,185.800 151.291 C 185.547 151.243,185.162 150.983,184.944 150.714 C 184.659 150.363,184.180 150.195,183.239 150.117 C 182.190 150.030,181.886 149.907,181.706 149.496 C 181.498 149.021,181.281 148.980,178.688 148.917 C 176.150 148.856,175.880 148.807,175.744 148.380 C 175.513 147.649,168.621 147.656,168.164 148.387 M231.486 148.387 C 231.227 148.802,230.929 148.865,229.233 148.865 C 226.988 148.865,226.523 148.988,226.523 149.580 C 226.523 149.901,226.259 150.045,225.448 150.167 C 224.615 150.292,224.373 150.428,224.373 150.775 C 224.373 151.056,224.174 151.250,223.835 151.298 C 223.539 151.340,223.191 151.617,223.061 151.914 C 222.930 152.211,222.635 152.514,222.404 152.587 C 222.173 152.660,221.919 152.982,221.838 153.301 C 221.758 153.621,221.539 153.883,221.352 153.883 C 221.165 153.883,220.915 154.125,220.796 154.421 C 220.644 154.799,220.575 154.269,220.565 152.633 C 220.550 150.372,220.533 150.304,219.966 150.161 C 219.611 150.072,219.353 149.813,219.309 149.500 L 219.235 148.984 211.231 148.984 L 203.226 148.984 203.169 181.481 C 203.134 201.689,203.198 214.114,203.340 214.337 C 203.638 214.808,222.051 215.016,222.606 214.555 C 222.886 214.323,222.939 211.199,222.939 195.072 L 222.939 175.866 223.536 175.866 C 224.094 175.866,224.134 175.787,224.134 174.671 C 224.134 173.782,224.223 173.477,224.484 173.477 C 224.921 173.477,225.329 172.742,225.329 171.956 C 225.329 171.519,225.473 171.339,225.866 171.283 C 226.206 171.235,226.431 171.015,226.478 170.684 C 226.525 170.358,226.750 170.133,227.076 170.086 C 227.407 170.039,227.627 169.815,227.675 169.474 C 227.739 169.020,227.898 168.937,228.696 168.937 C 229.471 168.937,229.689 168.830,229.912 168.339 C 230.184 167.743,230.188 167.742,233.611 167.742 L 237.037 167.742 237.037 158.303 L 237.037 148.865 235.870 148.865 C 234.904 148.865,234.682 148.783,234.578 148.387 C 234.472 147.981,234.252 147.909,233.119 147.909 C 232.043 147.909,231.726 148.002,231.486 148.387 M301.323 148.378 C 300.932 148.769,300.463 148.859,298.515 148.916 C 296.313 148.980,296.172 149.015,296.102 149.510 C 296.039 149.953,295.852 150.046,294.907 150.107 C 293.954 150.168,293.776 150.259,293.711 150.717 C 293.649 151.152,293.482 151.254,292.834 151.254 C 291.734 151.254,291.278 151.467,291.278 151.980 C 291.278 152.250,291.074 152.445,290.741 152.492 C 290.395 152.541,290.176 152.761,290.127 153.106 C 290.065 153.542,289.898 153.644,289.248 153.644 C 288.503 153.644,287.694 154.136,287.694 154.589 C 287.694 154.696,287.471 154.841,287.199 154.913 C 286.926 154.984,286.645 155.262,286.575 155.530 C 286.505 155.798,286.257 156.078,286.024 156.152 C 285.791 156.226,285.535 156.612,285.456 157.010 C 285.304 157.769,284.800 158.423,284.366 158.423 C 284.225 158.423,284.110 158.684,284.110 159.004 C 284.110 159.424,283.961 159.606,283.572 159.661 C 283.113 159.726,283.024 159.904,282.962 160.872 C 282.896 161.897,282.832 162.007,282.305 162.007 C 281.773 162.007,281.720 162.102,281.720 163.066 C 281.720 163.916,281.626 164.156,281.243 164.277 C 280.840 164.405,280.765 164.639,280.765 165.752 C 280.765 166.879,280.676 167.146,280.167 167.546 C 279.607 167.987,279.570 168.153,279.570 170.230 C 279.570 172.362,279.548 172.454,278.970 172.718 L 278.370 172.991 278.432 183.210 L 278.495 193.429 279.024 193.504 C 279.523 193.575,279.557 193.711,279.621 195.894 C 279.686 198.088,279.717 198.212,280.227 198.284 C 280.699 198.351,280.765 198.500,280.765 199.506 C 280.765 200.271,280.916 200.845,281.219 201.230 C 281.469 201.548,281.711 202.073,281.757 202.397 C 281.812 202.789,282.016 203.012,282.365 203.062 C 282.795 203.123,282.902 203.316,282.962 204.137 C 283.017 204.900,283.160 205.192,283.563 205.369 C 283.853 205.496,284.122 205.819,284.160 206.086 C 284.202 206.379,284.442 206.601,284.767 206.647 C 285.113 206.697,285.305 206.889,285.305 207.185 C 285.305 207.518,285.471 207.646,285.902 207.646 C 286.380 207.646,286.499 207.766,286.499 208.244 C 286.499 208.722,286.619 208.841,287.097 208.841 C 287.575 208.841,287.694 208.961,287.694 209.438 C 287.694 209.916,287.814 210.036,288.292 210.036 C 288.769 210.036,288.889 210.155,288.889 210.633 C 288.889 211.138,289.000 211.231,289.606 211.231 C 290.076 211.231,290.323 211.351,290.323 211.581 C 290.323 212.021,291.059 212.425,291.860 212.425 C 292.239 212.425,292.473 212.559,292.473 212.775 C 292.473 213.370,293.318 213.620,295.325 213.620 C 297.224 213.620,297.252 213.629,297.252 214.220 L 297.252 214.820 307.109 214.758 L 316.965 214.695 317.042 214.158 C 317.115 213.644,317.217 213.620,319.346 213.620 C 321.409 213.620,321.617 213.576,322.137 213.027 C 322.467 212.679,322.972 212.432,323.357 212.429 L 324.014 212.425 324.014 209.655 C 324.014 207.086,323.980 206.876,323.536 206.760 C 323.102 206.646,323.059 206.434,323.059 204.408 C 323.059 202.024,322.805 200.956,322.241 200.956 C 321.985 200.956,321.869 200.614,321.817 199.701 L 321.744 198.447 318.676 198.447 C 315.782 198.447,315.583 198.477,315.173 198.984 C 314.746 199.512,314.643 199.522,309.517 199.522 C 304.331 199.522,304.293 199.518,304.059 198.984 C 303.877 198.569,303.592 198.430,302.808 198.373 C 301.990 198.314,301.792 198.210,301.792 197.840 C 301.792 197.554,301.575 197.326,301.217 197.236 C 300.901 197.157,300.589 196.886,300.523 196.634 C 300.455 196.374,300.195 196.177,299.920 196.177 C 299.600 196.177,299.410 195.995,299.360 195.639 C 299.311 195.298,299.091 195.074,298.758 195.027 C 298.315 194.964,298.222 194.777,298.161 193.832 C 298.099 192.879,298.008 192.701,297.551 192.636 C 297.048 192.564,297.013 192.443,297.013 190.786 L 297.013 189.012 311.649 188.950 L 326.284 188.889 326.347 178.549 L 326.409 168.210 325.818 167.985 C 325.256 167.772,325.224 167.654,325.158 165.541 C 325.093 163.445,325.060 163.317,324.552 163.245 C 324.077 163.178,324.014 163.030,324.014 161.991 C 324.014 161.146,323.884 160.682,323.554 160.352 C 323.301 160.099,323.059 159.588,323.016 159.217 C 322.961 158.735,322.790 158.521,322.414 158.468 C 321.984 158.407,321.877 158.213,321.817 157.392 C 321.762 156.630,321.619 156.337,321.216 156.160 C 320.926 156.033,320.657 155.710,320.619 155.443 C 320.578 155.155,320.338 154.928,320.027 154.884 C 319.701 154.837,319.476 154.612,319.429 154.286 C 319.383 153.961,319.158 153.735,318.832 153.689 C 318.506 153.643,318.281 153.417,318.235 153.092 C 318.187 152.761,317.963 152.541,317.622 152.492 C 317.289 152.445,317.085 152.250,317.085 151.980 C 317.085 151.467,316.630 151.254,315.529 151.254 C 314.881 151.254,314.714 151.152,314.652 150.717 C 314.587 150.259,314.409 150.168,313.456 150.107 C 312.511 150.046,312.324 149.953,312.261 149.510 C 312.191 149.017,312.047 148.980,309.932 148.915 C 308.011 148.856,307.629 148.777,307.350 148.378 C 306.856 147.673,302.028 147.673,301.323 148.378 M327.180 149.106 C 326.307 149.466,326.359 153.325,327.240 153.546 C 327.766 153.678,327.838 153.824,327.838 154.768 C 327.838 155.629,327.929 155.863,328.303 155.961 C 328.666 156.056,328.785 156.328,328.841 157.193 C 328.901 158.117,328.999 158.316,329.422 158.376 C 329.856 158.438,329.947 158.646,330.042 159.790 C 330.125 160.787,330.285 161.238,330.668 161.548 C 330.951 161.777,331.184 162.216,331.186 162.523 C 331.192 163.542,331.467 164.158,331.914 164.158 C 332.266 164.158,332.366 164.379,332.424 165.293 C 332.486 166.261,332.576 166.439,333.035 166.504 C 333.507 166.571,333.572 166.720,333.572 167.726 C 333.572 168.621,333.699 168.999,334.154 169.453 C 334.557 169.857,334.758 170.359,334.811 171.098 C 334.874 171.992,334.973 172.175,335.424 172.239 C 335.898 172.306,335.962 172.454,335.962 173.489 C 335.962 174.541,336.023 174.678,336.559 174.812 C 337.083 174.944,337.157 175.092,337.157 176.012 C 337.157 176.972,337.207 177.061,337.754 177.061 C 338.319 177.061,338.351 177.132,338.351 178.387 C 338.351 179.494,338.450 179.803,338.949 180.266 C 339.478 180.757,339.546 181.013,339.546 182.524 C 339.546 184.184,339.530 184.229,338.949 184.229 C 338.392 184.229,338.351 184.310,338.351 185.408 C 338.351 186.447,338.288 186.595,337.814 186.662 C 337.357 186.727,337.265 186.905,337.204 187.851 C 337.143 188.803,337.048 188.984,336.547 189.110 C 336.035 189.238,335.962 189.390,335.962 190.327 C 335.962 191.108,335.867 191.398,335.612 191.398 C 335.113 191.398,334.767 192.167,334.767 193.276 C 334.767 194.010,334.629 194.339,334.170 194.700 C 333.706 195.065,333.572 195.390,333.572 196.151 C 333.572 196.955,333.490 197.133,333.120 197.133 C 332.596 197.133,332.378 197.579,332.378 198.649 C 332.378 199.208,332.235 199.471,331.840 199.645 C 331.434 199.823,331.284 200.115,331.229 200.836 C 331.181 201.459,330.983 201.926,330.660 202.176 C 330.308 202.447,330.129 202.922,330.044 203.804 C 329.951 204.772,329.799 205.131,329.359 205.419 C 328.906 205.716,328.793 205.999,328.793 206.838 C 328.793 207.726,328.721 207.885,328.315 207.885 C 327.901 207.885,327.838 208.045,327.838 209.080 C 327.838 210.200,327.799 210.275,327.231 210.275 L 326.625 210.275 326.694 212.485 L 326.762 214.695 335.962 214.695 L 345.161 214.695 345.237 214.038 C 345.281 213.656,345.458 213.381,345.661 213.381 C 346.123 213.381,346.476 212.400,346.476 211.112 C 346.476 210.298,346.575 210.036,346.928 209.925 C 347.457 209.756,347.661 209.132,347.671 207.646 C 347.677 206.818,347.815 206.442,348.272 206.008 C 348.783 205.524,348.865 205.234,348.865 203.923 C 348.865 202.563,348.929 202.359,349.462 202.009 C 350.004 201.654,350.060 201.464,350.060 199.973 C 350.060 198.487,350.106 198.327,350.538 198.327 C 350.800 198.327,351.028 198.193,351.044 198.029 C 351.059 197.864,351.140 198.053,351.224 198.447 C 351.312 198.866,351.598 199.262,351.912 199.400 C 352.369 199.600,352.449 199.819,352.449 200.873 C 352.449 202.419,352.616 202.867,353.192 202.867 C 353.585 202.867,353.644 203.053,353.644 204.284 C 353.644 205.644,354.006 206.452,354.617 206.452 C 354.739 206.452,354.839 206.982,354.839 207.630 C 354.839 208.670,354.902 208.817,355.376 208.884 C 355.870 208.954,355.920 209.103,355.984 210.693 C 356.052 212.354,356.078 212.425,356.641 212.425 C 357.186 212.425,357.228 212.511,357.228 213.620 L 357.228 214.815 367.010 214.815 C 372.520 214.815,377.048 214.717,377.380 214.591 C 378.415 214.197,378.551 211.470,377.536 211.470 C 377.170 211.470,377.074 211.260,377.014 210.335 C 376.952 209.366,376.863 209.188,376.404 209.123 C 375.929 209.056,375.866 208.909,375.866 207.869 C 375.866 206.771,375.825 206.691,375.269 206.691 C 374.712 206.691,374.671 206.610,374.671 205.513 C 374.671 204.542,374.567 204.254,374.074 203.866 C 373.591 203.486,373.477 203.185,373.477 202.289 C 373.477 201.329,373.398 201.153,372.879 200.956 C 372.364 200.760,372.282 200.581,372.282 199.652 C 372.282 198.703,372.211 198.558,371.685 198.425 C 371.161 198.294,371.087 198.146,371.087 197.226 C 371.087 196.266,371.036 196.177,370.490 196.177 C 369.932 196.177,369.892 196.097,369.892 194.982 C 369.892 193.947,369.829 193.787,369.415 193.787 C 369.000 193.787,368.937 193.628,368.937 192.582 C 368.937 191.631,368.817 191.256,368.369 190.809 C 368.025 190.464,367.738 189.816,367.640 189.159 C 367.523 188.384,367.345 188.035,367.012 187.929 C 366.673 187.821,366.547 187.564,366.547 186.981 C 366.547 185.871,366.334 185.424,365.805 185.424 C 365.449 185.424,365.352 185.249,365.352 184.607 C 365.352 183.481,365.142 183.035,364.610 183.035 C 363.851 183.035,363.934 179.515,364.695 179.407 C 365.153 179.342,365.244 179.164,365.305 178.211 C 365.366 177.266,365.460 177.079,365.903 177.016 C 366.335 176.955,366.441 176.762,366.501 175.926 C 366.542 175.367,366.668 174.910,366.783 174.910 C 367.257 174.910,367.742 174.105,367.742 173.318 C 367.742 172.691,367.858 172.446,368.198 172.357 C 368.673 172.233,368.928 171.627,368.933 170.607 C 368.935 170.269,369.145 169.877,369.415 169.709 C 369.777 169.482,369.892 169.152,369.892 168.337 C 369.892 167.693,370.001 167.264,370.165 167.264 C 370.682 167.264,371.072 166.424,371.080 165.293 C 371.087 164.243,371.132 164.158,371.685 164.158 C 372.242 164.158,372.282 164.078,372.282 162.963 C 372.282 161.848,372.322 161.768,372.879 161.768 C 373.437 161.768,373.477 161.689,373.477 160.573 C 373.477 159.458,373.517 159.379,374.074 159.379 C 374.623 159.379,374.671 159.292,374.671 158.296 C 374.671 157.483,374.776 157.175,375.090 157.059 C 375.695 156.836,375.858 156.505,375.863 155.496 C 375.865 154.854,375.969 154.600,376.231 154.600 C 377.217 154.600,377.497 149.219,376.523 148.982 C 376.228 148.910,372.061 148.881,367.264 148.918 L 358.542 148.984 358.470 150.104 C 358.409 151.049,358.316 151.236,357.873 151.299 C 357.395 151.367,357.341 151.530,357.278 153.091 C 357.214 154.655,357.161 154.815,356.680 154.883 C 356.200 154.952,356.147 155.111,356.083 156.691 C 356.015 158.352,355.988 158.423,355.426 158.423 C 354.855 158.423,354.839 158.472,354.839 160.198 C 354.839 161.858,354.804 161.979,354.301 162.050 C 353.806 162.121,353.758 162.268,353.690 163.919 C 353.625 165.497,353.546 165.762,353.032 166.140 L 352.449 166.570 352.449 165.499 C 352.449 164.170,352.099 163.202,351.619 163.202 C 351.339 163.202,351.254 162.911,351.251 161.947 C 351.247 160.236,351.050 159.618,350.510 159.618 C 350.130 159.618,350.060 159.434,350.060 158.438 C 350.060 157.011,349.722 156.033,349.229 156.033 C 348.948 156.033,348.865 155.740,348.865 154.739 C 348.865 153.155,348.702 152.688,348.150 152.688 C 347.797 152.688,347.709 152.427,347.627 151.136 C 347.573 150.282,347.394 149.448,347.229 149.284 C 346.862 148.917,328.046 148.750,327.180 149.106 M304.304 163.499 C 304.434 163.794,304.755 164.076,305.017 164.125 C 305.648 164.244,306.517 165.201,306.613 165.884 C 306.663 166.232,306.880 166.455,307.218 166.503 C 307.698 166.571,307.752 166.731,307.815 168.295 C 307.879 169.869,307.930 170.018,308.423 170.088 C 308.939 170.162,308.961 170.259,308.961 172.538 L 308.961 174.910 302.987 174.910 L 297.013 174.910 297.013 172.999 C 297.013 171.445,297.081 171.087,297.377 171.087 C 297.867 171.087,298.208 170.112,298.208 168.710 C 298.208 167.765,298.292 167.537,298.679 167.435 C 299.014 167.348,299.196 167.028,299.307 166.332 C 299.439 165.505,299.552 165.352,300.031 165.352 C 300.476 165.352,300.597 165.224,300.597 164.755 C 300.597 164.277,300.717 164.158,301.195 164.158 C 301.673 164.158,301.792 164.038,301.792 163.560 C 301.792 162.700,303.930 162.648,304.304 163.499 M175.866 190.653 C 175.866 196.953,175.857 197.079,175.371 197.206 C 175.098 197.278,174.818 197.556,174.747 197.824 C 174.677 198.092,174.416 198.376,174.168 198.455 C 173.919 198.534,173.716 198.806,173.716 199.060 C 173.716 199.373,173.550 199.522,173.205 199.522 C 172.925 199.522,172.446 199.791,172.142 200.119 C 171.429 200.888,169.892 200.982,169.892 200.258 C 169.892 199.946,169.671 199.750,169.200 199.647 C 168.383 199.467,167.864 198.930,167.654 198.045 C 167.570 197.692,167.302 197.340,167.058 197.263 C 166.081 196.953,166.183 190.151,167.178 189.216 C 167.488 188.924,167.742 188.497,167.742 188.266 C 167.742 188.013,167.955 187.817,168.280 187.771 C 168.625 187.721,168.844 187.502,168.894 187.157 C 168.943 186.806,169.134 186.619,169.442 186.619 C 169.702 186.619,170.183 186.350,170.512 186.022 C 170.913 185.620,171.374 185.424,171.915 185.424 C 173.030 185.424,173.477 185.212,173.477 184.682 C 173.477 184.298,173.659 184.229,174.671 184.229 L 175.866 184.229 175.866 190.653 " stroke="none" fill="#ffffff" fill-rule="evenodd"></path><path id="path2" d="M290.654 70.246 C 290.377 70.358,290.089 70.701,290.014 71.008 L 289.878 71.565 290.249 71.027 C 290.453 70.732,290.762 70.490,290.935 70.490 C 291.108 70.490,291.317 70.382,291.398 70.251 C 291.573 69.968,291.346 69.967,290.654 70.246 M293.011 70.183 C 293.372 70.238,293.964 70.238,294.325 70.183 C 294.686 70.128,294.391 70.084,293.668 70.084 C 292.945 70.084,292.649 70.128,293.011 70.183 M295.878 70.177 C 296.108 70.237,296.484 70.237,296.714 70.177 C 296.944 70.117,296.756 70.067,296.296 70.067 C 295.836 70.067,295.648 70.117,295.878 70.177 M299.870 70.770 C 300.156 71.037,300.456 71.188,300.538 71.107 C 300.736 70.908,300.218 70.413,299.737 70.342 C 299.439 70.299,299.470 70.398,299.870 70.770 M306.332 71.298 C 306.332 71.349,306.601 71.441,306.930 71.504 C 307.258 71.567,307.527 71.526,307.527 71.413 C 307.527 71.299,307.258 71.207,306.930 71.207 C 306.601 71.207,306.332 71.248,306.332 71.298 M287.216 71.699 C 287.216 71.838,287.109 71.885,286.977 71.804 C 286.846 71.723,286.738 71.817,286.738 72.014 C 286.738 72.219,286.459 72.415,286.081 72.474 C 285.720 72.531,285.843 72.546,286.355 72.508 C 287.192 72.445,287.680 72.122,287.690 71.625 C 287.692 71.526,287.587 71.446,287.455 71.446 C 287.324 71.446,287.216 71.560,287.216 71.699 M308.184 71.614 C 308.480 71.671,308.722 71.872,308.722 72.060 C 308.722 72.257,308.949 72.398,309.259 72.393 L 309.797 72.386 309.233 71.916 C 308.923 71.657,308.439 71.460,308.158 71.478 C 307.664 71.510,307.665 71.514,308.184 71.614 M322.162 73.874 C 322.524 74.006,322.820 74.243,322.820 74.402 C 322.820 74.560,323.035 74.705,323.297 74.725 C 323.560 74.745,323.775 74.663,323.775 74.543 C 323.775 74.249,322.471 73.592,321.935 73.615 C 321.650 73.628,321.726 73.715,322.162 73.874 M279.941 75.110 C 279.701 75.286,279.564 75.582,279.638 75.768 C 279.743 76.033,279.775 76.024,279.790 75.723 C 279.800 75.514,280.051 75.225,280.346 75.083 C 280.642 74.940,280.770 74.816,280.631 74.807 C 280.492 74.798,280.181 74.935,279.941 75.110 M327.577 75.051 C 327.894 75.178,328.293 75.467,328.465 75.693 C 328.760 76.081,328.779 76.081,328.786 75.695 C 328.794 75.239,328.101 74.783,327.435 74.806 C 327.103 74.818,327.136 74.875,327.577 75.051 M277.897 76.160 C 277.504 76.310,277.190 76.699,277.184 77.043 C 277.182 77.164,277.422 77.044,277.718 76.775 C 278.014 76.506,278.417 76.226,278.614 76.154 C 278.933 76.038,278.933 76.023,278.614 76.023 C 278.417 76.023,278.094 76.085,277.897 76.160 M332.557 76.253 C 332.984 76.376,333.333 76.600,333.333 76.749 C 333.333 76.899,333.402 76.952,333.487 76.868 C 333.777 76.577,333.035 75.986,332.408 76.007 C 331.821 76.027,331.831 76.043,332.557 76.253 M337.014 77.778 C 337.681 78.395,338.112 78.542,338.112 78.150 C 338.112 77.852,337.141 77.180,336.710 77.180 C 336.497 77.180,336.611 77.404,337.014 77.778 M275.508 78.017 C 275.264 78.310,275.280 78.375,275.598 78.375 C 275.811 78.375,275.986 78.214,275.986 78.017 C 275.986 77.820,275.945 77.658,275.895 77.658 C 275.846 77.658,275.671 77.820,275.508 78.017 M341.149 78.763 C 340.962 78.950,341.219 79.570,341.483 79.570 C 341.756 79.570,341.762 78.922,341.491 78.754 C 341.378 78.684,341.224 78.688,341.149 78.763 M344.152 80.287 C 344.173 80.573,344.359 80.765,344.615 80.765 C 345.110 80.765,345.164 80.505,344.755 80.096 C 344.334 79.674,344.111 79.745,344.152 80.287 M270.593 81.356 C 270.268 81.682,269.802 82.055,269.559 82.185 C 268.909 82.533,268.735 83.370,269.346 83.210 C 269.603 83.143,269.876 82.915,269.953 82.703 C 270.160 82.134,270.885 81.240,271.026 81.380 C 271.093 81.447,271.211 81.336,271.289 81.133 C 271.491 80.607,271.273 80.677,270.593 81.356 M346.516 81.219 C 346.672 81.468,346.945 81.617,347.122 81.549 C 347.523 81.395,347.074 80.765,346.564 80.765 C 346.298 80.765,346.289 80.855,346.516 81.219 M348.626 82.196 C 348.626 82.329,348.734 82.437,348.865 82.437 C 348.996 82.437,349.077 82.557,349.044 82.704 C 349.011 82.851,349.165 83.002,349.386 83.039 C 349.614 83.078,349.741 82.986,349.680 82.827 C 349.530 82.436,348.626 81.895,348.626 82.196 M268.005 83.909 C 267.534 84.582,267.505 84.955,267.956 84.537 C 268.139 84.368,268.246 84.158,268.193 84.071 C 268.141 83.983,268.232 83.864,268.398 83.805 C 268.563 83.746,268.628 83.622,268.543 83.530 C 268.458 83.438,268.216 83.608,268.005 83.909 M352.867 85.551 C 353.163 85.670,353.414 85.959,353.424 86.193 C 353.436 86.457,353.490 86.502,353.566 86.312 C 353.728 85.908,353.210 85.301,352.719 85.320 C 352.455 85.330,352.504 85.405,352.867 85.551 M353.928 86.886 C 354.150 86.952,354.386 87.188,354.452 87.410 C 354.539 87.703,354.559 87.683,354.524 87.338 C 354.495 87.060,354.278 86.843,354.000 86.815 C 353.655 86.779,353.635 86.799,353.928 86.886 M266.445 89.626 C 266.454 89.943,266.559 90.418,266.678 90.681 C 266.829 91.014,266.850 90.869,266.749 90.203 C 266.580 89.094,266.420 88.791,266.445 89.626 M268.965 92.712 C 269.152 93.454,269.052 93.366,269.893 93.530 C 270.596 93.668,270.598 93.666,269.985 93.421 C 269.641 93.284,269.237 92.934,269.087 92.643 C 268.823 92.131,268.819 92.134,268.965 92.712 M354.224 92.421 C 353.885 92.648,353.604 93.429,353.861 93.429 C 354.162 93.429,354.657 92.764,354.563 92.489 C 354.517 92.357,354.365 92.327,354.224 92.421 M271.207 93.933 C 271.207 94.452,272.190 94.922,273.020 94.799 C 273.637 94.707,273.615 94.691,272.833 94.659 C 272.219 94.635,271.838 94.462,271.579 94.093 C 271.311 93.710,271.207 93.666,271.207 93.933 M274.074 95.093 C 274.074 95.220,274.294 95.441,274.563 95.585 C 275.014 95.827,275.028 95.809,274.744 95.355 C 274.421 94.838,274.074 94.702,274.074 95.093 M278.383 96.189 C 278.374 96.481,278.862 97.013,279.140 97.013 C 279.245 97.013,279.331 96.888,279.331 96.734 C 279.331 96.581,279.261 96.526,279.175 96.611 C 279.090 96.697,278.878 96.580,278.705 96.352 C 278.532 96.124,278.387 96.051,278.383 96.189 M285.544 97.363 C 285.544 97.792,286.276 98.209,287.021 98.204 C 287.451 98.201,287.497 98.151,287.228 97.981 C 287.037 97.860,286.807 97.807,286.717 97.863 C 286.627 97.918,286.498 97.750,286.429 97.488 C 286.287 96.942,285.544 96.837,285.544 97.363 M296.296 98.441 C 296.296 98.754,297.466 99.507,297.656 99.317 C 297.862 99.111,297.016 98.208,296.618 98.208 C 296.441 98.208,296.296 98.313,296.296 98.441 M345.281 99.881 C 345.281 100.169,345.115 100.366,344.863 100.377 C 344.591 100.390,344.554 100.440,344.757 100.521 C 345.077 100.649,345.998 99.969,345.998 99.605 C 345.998 99.493,345.836 99.403,345.639 99.403 C 345.440 99.403,345.281 99.615,345.281 99.881 M308.050 99.895 C 308.107 100.068,308.295 100.256,308.468 100.314 C 308.647 100.373,308.737 100.284,308.677 100.105 C 308.619 99.932,308.431 99.744,308.259 99.686 C 308.079 99.627,307.990 99.716,308.050 99.895 M314.456 100.819 C 314.456 101.044,315.117 101.792,315.315 101.792 C 315.375 101.792,315.247 101.523,315.032 101.195 C 314.617 100.562,314.456 100.457,314.456 100.819 M342.891 101.075 C 342.891 101.338,342.766 101.553,342.613 101.553 C 342.459 101.553,342.402 101.621,342.486 101.705 C 342.677 101.896,343.847 101.145,343.847 100.831 C 343.847 100.702,343.632 100.597,343.369 100.597 C 343.051 100.597,342.891 100.757,342.891 101.075 M317.608 102.046 C 317.665 102.218,317.853 102.407,318.026 102.464 C 318.205 102.524,318.295 102.434,318.235 102.255 C 318.177 102.083,317.989 101.894,317.817 101.837 C 317.637 101.777,317.548 101.867,317.608 102.046 M337.586 103.436 C 337.413 103.683,337.057 103.940,336.796 104.006 C 336.323 104.125,336.323 104.126,336.798 104.150 C 337.417 104.181,337.945 103.841,338.015 103.364 C 338.087 102.868,337.970 102.888,337.586 103.436 M318.854 105.172 C 318.401 105.682,318.402 105.683,318.937 105.403 C 319.232 105.248,319.474 105.017,319.474 104.890 C 319.474 104.551,319.360 104.603,318.854 105.172 M330.108 105.994 C 329.713 106.310,329.519 106.569,329.675 106.570 C 329.832 106.571,330.027 106.462,330.110 106.328 C 330.192 106.195,330.361 106.148,330.484 106.224 C 330.699 106.356,331.098 105.689,330.914 105.507 C 330.865 105.459,330.502 105.678,330.108 105.994 M325.481 107.070 C 325.097 107.381,325.031 107.527,325.273 107.527 C 325.631 107.527,326.314 106.879,326.139 106.705 C 326.088 106.654,325.792 106.818,325.481 107.070 " stroke="none" fill="#003300" fill-rule="evenodd"></path><path id="path3" d="M288.459 47.121 C 288.093 47.486,288.088 47.858,288.450 47.737 C 288.603 47.686,288.754 47.462,288.787 47.239 C 288.858 46.757,288.832 46.748,288.459 47.121 M349.494 52.693 C 349.413 52.904,349.238 53.010,349.106 52.928 C 348.973 52.846,348.865 52.893,348.865 53.032 C 348.865 53.172,348.959 53.286,349.075 53.286 C 349.357 53.286,349.921 52.589,349.765 52.433 C 349.697 52.365,349.575 52.482,349.494 52.693 M262.658 57.481 C 262.106 57.867,261.951 58.303,262.366 58.303 C 262.497 58.303,262.578 58.204,262.545 58.081 C 262.512 57.959,262.700 57.694,262.963 57.492 C 263.589 57.010,263.343 57.001,262.658 57.481 M257.634 61.219 C 257.280 61.573,257.264 61.888,257.601 61.888 C 257.740 61.888,257.791 61.787,257.715 61.663 C 257.639 61.540,257.767 61.328,258.000 61.193 C 258.233 61.057,258.310 60.943,258.172 60.939 C 258.034 60.935,257.792 61.061,257.634 61.219 M292.607 68.466 C 292.235 68.747,292.218 68.817,292.518 68.817 C 292.724 68.817,293.026 68.656,293.190 68.459 C 293.568 68.003,293.213 68.007,292.607 68.466 M291.053 70.408 C 290.747 70.561,290.410 70.826,290.304 70.997 C 290.198 71.169,289.702 71.327,289.202 71.348 C 288.701 71.369,288.238 71.413,288.172 71.444 C 288.106 71.476,287.978 71.492,287.888 71.479 C 287.797 71.466,287.657 71.664,287.576 71.920 C 287.478 72.228,287.130 72.433,286.546 72.529 C 284.567 72.851,284.378 72.915,284.494 73.218 C 284.575 73.430,284.219 73.592,283.345 73.742 C 282.337 73.914,282.093 74.043,282.149 74.375 C 282.215 74.768,281.707 74.904,280.349 74.856 C 280.186 74.850,280.112 74.940,280.184 75.057 C 280.256 75.173,280.201 75.269,280.062 75.269 C 279.923 75.269,279.809 75.417,279.809 75.597 C 279.809 75.957,278.479 76.317,278.075 76.067 C 277.937 75.982,277.891 76.022,277.974 76.156 C 278.174 76.480,277.461 77.078,276.643 77.272 C 276.200 77.378,275.986 77.583,275.986 77.902 C 275.986 78.346,275.650 78.478,274.612 78.439 C 274.447 78.433,274.313 78.535,274.313 78.666 C 274.313 78.797,274.159 78.845,273.971 78.773 C 273.732 78.681,273.656 78.781,273.718 79.106 C 273.786 79.458,273.674 79.570,273.250 79.570 C 272.854 79.570,272.649 79.744,272.542 80.167 C 272.444 80.557,272.225 80.765,271.911 80.765 C 271.647 80.765,271.368 80.929,271.291 81.129 C 271.188 81.398,271.069 81.426,270.842 81.237 C 270.619 81.052,270.483 81.061,270.355 81.268 C 270.242 81.450,270.278 81.493,270.453 81.385 C 270.858 81.134,270.789 81.612,270.370 81.959 C 270.173 82.123,270.012 82.408,270.012 82.592 C 270.012 82.776,269.735 83.032,269.397 83.161 C 268.803 83.387,267.906 84.110,268.220 84.110 C 268.304 84.110,268.204 84.279,267.998 84.485 C 267.791 84.692,267.622 85.003,267.622 85.176 C 267.622 85.350,267.381 85.553,267.085 85.628 C 266.069 85.887,266.369 91.039,267.400 91.039 C 267.654 91.039,267.840 91.120,267.814 91.219 C 267.680 91.727,268.157 92.435,268.578 92.354 C 268.865 92.298,269.087 92.432,269.177 92.716 C 269.317 93.156,269.671 93.345,270.752 93.553 C 271.290 93.656,271.733 94.113,271.564 94.387 C 271.514 94.467,271.921 94.558,272.466 94.590 C 273.012 94.623,273.580 94.750,273.728 94.873 C 273.877 94.997,274.072 95.024,274.161 94.935 C 274.251 94.845,274.489 95.007,274.690 95.295 C 275.007 95.747,275.280 95.818,276.703 95.818 C 278.075 95.818,278.403 95.897,278.682 96.295 C 278.865 96.557,279.086 96.700,279.173 96.613 C 279.260 96.527,279.331 96.560,279.331 96.688 C 279.331 96.816,279.573 96.926,279.869 96.933 C 280.164 96.940,281.727 96.961,283.341 96.979 C 285.892 97.009,286.298 97.068,286.447 97.431 C 286.697 98.040,286.877 98.063,292.115 98.148 C 296.748 98.224,296.909 98.243,297.386 98.775 C 297.865 99.309,298.007 99.325,302.733 99.380 C 307.733 99.439,308.722 99.585,308.722 100.262 C 308.722 100.585,308.786 100.602,309.080 100.358 C 309.277 100.195,309.438 100.159,309.438 100.278 C 309.438 100.397,309.788 100.502,310.215 100.512 C 314.100 100.595,314.577 100.659,314.969 101.149 C 315.185 101.420,315.669 101.672,316.044 101.710 C 318.065 101.913,318.160 101.941,318.131 102.317 C 318.112 102.559,318.355 102.751,318.788 102.838 C 319.765 103.033,319.832 104.985,318.877 105.420 C 318.146 105.753,318.033 107.024,318.698 107.425 C 319.512 107.917,324.666 107.665,325.435 107.096 C 325.949 106.716,326.515 106.586,327.818 106.548 C 328.758 106.521,329.583 106.407,329.652 106.296 C 329.721 106.184,329.885 106.093,330.016 106.093 C 330.148 106.093,330.178 106.217,330.085 106.369 C 329.978 106.541,330.019 106.580,330.194 106.472 C 330.348 106.377,330.416 106.206,330.346 106.093 C 330.087 105.673,330.731 105.460,332.779 105.289 C 334.155 105.175,334.528 105.019,334.528 104.559 C 334.528 104.358,334.994 104.200,335.850 104.112 C 336.754 104.019,337.303 103.824,337.583 103.499 C 337.930 103.094,338.689 102.888,340.296 102.760 C 340.380 102.753,340.434 102.560,340.416 102.330 C 340.392 102.030,340.585 101.893,341.099 101.846 C 342.513 101.717,342.891 101.553,342.891 101.071 C 342.891 100.714,343.054 100.597,343.548 100.594 C 344.674 100.589,345.281 100.329,345.281 99.853 C 345.281 99.428,346.171 99.229,347.372 99.385 C 347.541 99.407,347.670 99.166,347.670 98.830 C 347.670 98.317,347.791 98.227,348.566 98.163 C 349.225 98.108,349.525 97.946,349.698 97.551 C 349.828 97.255,350.126 97.013,350.360 97.013 C 350.595 97.013,350.909 96.744,351.059 96.416 C 351.209 96.087,351.485 95.818,351.674 95.818 C 351.862 95.818,352.072 95.603,352.141 95.341 C 352.250 94.925,352.450 94.790,352.927 94.811 C 353.091 94.819,353.659 94.185,353.631 94.027 C 353.549 93.576,353.972 92.490,354.275 92.374 C 354.845 92.155,354.675 86.764,354.102 86.913 C 353.827 86.985,353.625 86.790,353.448 86.280 C 353.307 85.875,353.041 85.544,352.858 85.544 C 352.676 85.544,352.403 85.275,352.254 84.946 C 352.091 84.590,351.783 84.349,351.488 84.349 C 351.161 84.349,351.018 84.216,351.065 83.957 C 351.111 83.697,350.869 83.474,350.344 83.294 C 349.888 83.137,349.636 82.928,349.747 82.798 C 349.853 82.674,349.769 82.702,349.560 82.861 C 349.088 83.219,348.771 82.957,349.140 82.514 C 349.354 82.256,349.328 82.219,349.018 82.338 C 348.800 82.422,348.626 82.371,348.626 82.224 C 348.626 82.078,348.417 81.959,348.162 81.959 C 347.907 81.959,347.627 81.845,347.541 81.704 C 347.454 81.564,347.252 81.499,347.091 81.561 C 346.931 81.622,346.672 81.468,346.516 81.219 C 346.306 80.882,345.955 80.765,345.159 80.765 C 344.569 80.765,344.099 80.684,344.114 80.585 C 344.256 79.691,344.081 79.570,342.652 79.570 C 341.255 79.570,341.104 79.481,341.191 78.714 C 341.208 78.573,341.032 78.457,340.802 78.458 C 338.340 78.470,337.631 78.349,337.059 77.819 C 336.598 77.392,336.142 77.250,335.089 77.208 C 333.574 77.146,333.248 77.030,333.409 76.610 C 333.530 76.296,333.556 76.301,330.705 76.089 C 329.438 75.994,328.577 75.815,328.415 75.612 C 327.969 75.051,326.985 74.818,324.868 74.771 C 323.398 74.739,322.820 74.640,322.820 74.423 C 322.820 73.940,321.665 73.669,319.373 73.615 C 317.331 73.567,316.143 73.207,316.549 72.760 C 316.646 72.652,316.549 72.628,316.332 72.705 C 316.114 72.783,315.874 72.783,315.797 72.706 C 315.669 72.579,314.664 72.530,310.215 72.434 C 309.061 72.409,308.722 72.320,308.722 72.043 C 308.722 71.846,308.516 71.685,308.264 71.685 C 308.012 71.685,307.751 71.550,307.685 71.386 C 307.592 71.156,307.560 71.159,307.546 71.400 C 307.535 71.572,307.417 71.645,307.283 71.562 C 307.148 71.479,305.520 71.357,303.664 71.292 C 300.516 71.180,299.308 70.903,299.805 70.406 C 299.882 70.329,299.716 70.310,299.435 70.364 C 299.154 70.418,298.925 70.388,298.925 70.297 C 298.925 70.006,291.654 70.109,291.053 70.408 M268.144 80.816 C 267.793 81.167,267.779 81.481,268.114 81.481 C 268.254 81.481,268.307 81.383,268.232 81.263 C 268.158 81.143,268.232 80.996,268.398 80.937 C 268.563 80.878,268.637 80.763,268.562 80.682 C 268.488 80.600,268.300 80.661,268.144 80.816 " stroke="none" fill="#005f33" fill-rule="evenodd"></path><path id="path4" d="" stroke="none" fill="#555500" fill-rule="evenodd"></path><path id="path5" d="M330.738 108.252 C 329.997 108.869,330.332 108.862,331.118 108.244 C 331.452 107.981,331.630 107.769,331.514 107.774 C 331.397 107.778,331.048 107.993,330.738 108.252 M321.266 111.828 C 321.185 111.959,321.206 112.069,321.312 112.071 C 321.418 112.073,321.344 112.188,321.147 112.328 C 320.910 112.496,320.895 112.553,321.105 112.497 C 321.279 112.451,321.406 112.313,321.386 112.190 C 321.367 112.067,321.547 111.889,321.786 111.794 C 322.168 111.644,322.172 111.621,321.818 111.606 C 321.596 111.597,321.348 111.697,321.266 111.828 M315.651 113.993 C 315.651 114.132,315.551 114.184,315.429 114.108 C 315.306 114.033,315.139 114.080,315.056 114.214 C 314.974 114.347,315.116 114.456,315.373 114.456 C 315.629 114.456,315.901 114.295,315.976 114.098 C 316.052 113.901,316.010 113.740,315.883 113.740 C 315.755 113.740,315.651 113.853,315.651 113.993 M359.535 114.089 C 359.464 114.272,359.555 114.388,359.747 114.360 C 360.262 114.284,360.394 114.052,360.006 113.904 C 359.814 113.830,359.602 113.914,359.535 114.089 M303.329 119.023 C 303.099 119.395,303.380 119.546,303.831 119.293 C 304.191 119.092,304.194 119.052,303.857 118.923 C 303.650 118.843,303.412 118.888,303.329 119.023 M293.942 123.695 C 293.560 124.111,293.667 124.310,294.122 124.029 C 294.299 123.920,294.403 123.721,294.354 123.588 C 294.303 123.447,294.129 123.492,293.942 123.695 M290.329 125.798 C 290.169 125.991,290.094 126.287,290.162 126.456 C 290.238 126.645,290.292 126.600,290.304 126.336 C 290.314 126.102,290.565 125.813,290.860 125.694 C 291.224 125.548,291.272 125.473,291.009 125.463 C 290.795 125.455,290.489 125.606,290.329 125.798 M324.072 132.483 C 324.169 132.598,324.127 132.839,323.978 133.018 C 323.558 133.525,323.891 133.635,324.408 133.160 C 324.662 132.927,324.822 132.762,324.763 132.794 C 324.704 132.825,324.484 132.721,324.275 132.563 C 324.066 132.404,323.975 132.368,324.072 132.483 M292.473 142.323 C 292.473 142.641,292.538 142.657,292.832 142.413 C 293.029 142.250,293.190 142.075,293.190 142.026 C 293.190 141.976,293.029 141.935,292.832 141.935 C 292.634 141.935,292.473 142.110,292.473 142.323 M278.375 146.149 C 278.375 146.321,279.339 147.192,279.529 147.192 C 279.597 147.192,279.401 146.924,279.092 146.595 C 278.511 145.976,278.375 145.892,278.375 146.149 M282.315 151.736 C 282.233 151.870,282.073 151.922,281.959 151.852 C 281.846 151.782,281.686 151.834,281.603 151.967 C 281.366 152.352,282.107 152.249,282.437 151.852 C 282.601 151.655,282.674 151.493,282.600 151.493 C 282.526 151.493,282.398 151.603,282.315 151.736 " stroke="none" fill="#339900" fill-rule="evenodd"></path><path id="path6" d="M375.947 24.392 C 375.705 24.480,375.439 24.512,375.354 24.464 C 375.269 24.416,375.133 24.644,375.051 24.972 C 374.942 25.407,374.741 25.568,374.308 25.568 C 373.875 25.568,373.716 25.696,373.716 26.045 C 373.716 26.362,373.556 26.523,373.242 26.523 C 372.937 26.523,372.716 26.735,372.619 27.121 C 372.523 27.504,372.301 27.718,372.000 27.718 C 371.450 27.718,370.796 28.294,371.039 28.564 C 371.131 28.667,371.080 28.678,370.925 28.589 C 370.769 28.500,370.575 28.536,370.492 28.670 C 370.410 28.804,370.131 28.913,369.873 28.913 C 369.611 28.913,369.290 29.164,369.144 29.484 C 368.960 29.887,368.620 30.097,367.983 30.199 C 367.382 30.295,367.043 30.491,366.966 30.787 C 366.885 31.094,366.538 31.281,365.838 31.393 C 365.113 31.509,364.791 31.688,364.703 32.026 C 364.615 32.363,364.367 32.502,363.831 32.514 C 363.159 32.529,361.842 32.917,362.323 32.958 C 362.977 33.014,361.633 33.692,360.868 33.692 C 360.103 33.692,359.884 33.800,359.661 34.289 C 359.427 34.804,359.223 34.891,358.189 34.916 C 356.419 34.960,356.153 35.061,356.153 35.683 C 356.153 35.860,355.586 35.986,354.600 36.027 C 353.443 36.076,352.952 36.205,352.677 36.531 C 352.396 36.865,351.835 37.004,350.343 37.111 C 348.291 37.259,347.808 37.398,348.040 37.772 C 348.235 38.088,347.817 38.183,345.645 38.316 C 344.135 38.408,343.661 38.529,343.362 38.898 C 343.046 39.288,342.581 39.384,340.489 39.489 C 337.907 39.620,337.063 39.799,337.293 40.170 C 337.503 40.510,337.009 40.583,333.616 40.709 C 330.668 40.820,329.557 41.072,329.861 41.564 C 329.989 41.772,330.247 41.757,325.628 41.813 C 323.559 41.838,321.804 41.958,321.729 42.080 C 321.653 42.202,321.484 42.235,321.353 42.154 C 321.222 42.073,321.058 42.224,320.989 42.489 C 320.870 42.943,320.638 42.975,316.962 43.050 C 313.391 43.123,313.002 43.175,312.353 43.654 C 311.701 44.137,311.345 44.182,307.789 44.223 C 305.667 44.248,303.873 44.364,303.801 44.480 C 303.729 44.596,303.563 44.625,303.432 44.544 C 303.301 44.463,303.135 44.622,303.062 44.898 C 302.946 45.343,297.472 45.733,295.733 45.420 C 295.620 45.400,295.178 45.650,294.750 45.976 C 294.057 46.505,293.717 46.575,291.658 46.613 C 289.744 46.649,289.253 46.737,288.818 47.122 C 288.528 47.378,288.426 47.519,288.590 47.435 C 288.754 47.352,288.889 47.397,288.889 47.537 C 288.889 47.697,288.065 47.790,286.644 47.790 C 284.829 47.790,284.373 47.861,284.257 48.163 C 284.178 48.369,284.016 48.477,283.898 48.404 C 283.779 48.330,283.620 48.431,283.545 48.627 C 283.443 48.894,283.012 48.984,281.847 48.984 C 280.908 48.984,280.287 49.085,280.287 49.238 C 280.287 49.377,280.187 49.429,280.065 49.354 C 279.943 49.278,279.774 49.433,279.690 49.698 C 279.571 50.075,279.322 50.183,278.538 50.196 C 277.421 50.215,276.688 50.441,276.625 50.786 C 276.602 50.912,276.502 50.989,276.404 50.956 C 276.305 50.923,276.225 51.004,276.225 51.135 C 276.225 51.266,275.787 51.374,275.252 51.374 C 274.241 51.374,273.606 51.761,273.776 52.272 C 273.847 52.485,273.497 52.569,272.541 52.569 C 271.807 52.569,271.219 52.649,271.235 52.748 C 271.327 53.333,271.130 53.525,270.430 53.528 C 269.544 53.532,268.937 53.843,268.937 54.292 C 268.937 54.469,268.454 54.693,267.802 54.819 C 266.973 54.979,266.667 55.149,266.667 55.449 C 266.667 55.753,266.386 55.902,265.591 56.021 C 264.904 56.124,264.516 56.303,264.516 56.518 C 264.516 56.844,263.718 57.425,263.528 57.236 C 263.476 57.184,263.167 57.358,262.840 57.624 C 262.513 57.889,262.397 58.026,262.582 57.929 C 262.793 57.817,262.859 57.847,262.758 58.009 C 262.671 58.151,262.277 58.337,261.883 58.424 C 261.489 58.510,261.060 58.780,260.930 59.023 C 260.800 59.266,260.452 59.499,260.156 59.541 C 259.810 59.590,259.590 59.810,259.541 60.155 C 259.492 60.505,259.301 60.693,258.994 60.693 C 258.735 60.693,258.285 60.924,257.995 61.206 C 257.705 61.488,257.602 61.643,257.766 61.550 C 257.930 61.458,258.065 61.447,258.065 61.528 C 258.065 61.608,257.746 61.785,257.357 61.920 C 256.969 62.056,256.585 62.373,256.505 62.625 C 256.425 62.876,256.198 63.082,256.000 63.082 C 255.580 63.082,255.116 63.507,254.893 64.098 C 254.805 64.328,254.563 64.516,254.354 64.516 C 254.145 64.516,254.031 64.607,254.100 64.719 C 254.224 64.920,253.037 66.097,252.808 66.000 C 252.742 65.972,252.688 66.084,252.688 66.249 C 252.688 66.573,252.215 67.232,251.553 67.829 C 251.323 68.037,251.135 68.385,251.135 68.603 C 251.135 68.822,250.920 69.057,250.657 69.125 C 250.375 69.199,250.179 69.451,250.179 69.740 C 250.179 70.009,249.910 70.498,249.582 70.827 C 249.222 71.186,248.984 71.697,248.984 72.110 C 248.984 72.533,248.755 73.011,248.387 73.357 C 247.855 73.857,247.790 74.111,247.790 75.669 C 247.790 76.646,247.687 77.419,247.557 77.419 C 246.507 77.419,246.239 81.653,247.232 82.572 C 247.697 83.004,247.790 83.328,247.790 84.526 C 247.790 85.964,248.179 86.730,248.735 86.386 C 248.888 86.292,248.984 86.517,248.984 86.965 C 248.984 87.454,249.224 87.949,249.701 88.449 C 250.096 88.861,250.418 89.342,250.418 89.517 C 250.418 89.692,250.683 89.902,251.007 89.983 C 251.331 90.065,251.659 90.332,251.737 90.577 C 251.822 90.845,252.196 91.082,252.673 91.172 C 253.194 91.270,253.558 91.520,253.730 91.898 C 253.875 92.216,254.076 92.463,254.177 92.446 C 254.722 92.358,255.190 92.507,255.137 92.752 C 255.061 93.108,256.096 93.660,256.847 93.664 C 257.163 93.666,257.774 93.937,258.205 94.265 C 258.672 94.622,259.308 94.864,259.781 94.866 C 260.472 94.869,261.682 95.321,261.051 95.341 C 260.920 95.345,260.974 95.452,261.171 95.579 C 261.368 95.707,262.416 95.813,263.501 95.815 C 265.274 95.818,265.472 95.864,265.472 96.271 C 265.472 96.906,265.712 96.954,269.096 96.998 L 272.105 97.036 272.200 96.368 C 272.382 95.082,272.218 94.863,271.070 94.863 C 270.089 94.863,269.886 94.718,269.982 94.090 C 270.013 93.888,269.293 93.705,268.100 93.613 C 267.556 93.571,267.287 93.438,267.330 93.232 C 267.366 93.058,267.294 92.978,267.170 93.055 C 267.046 93.132,266.782 93.032,266.584 92.834 C 266.385 92.635,265.991 92.473,265.707 92.473 C 265.422 92.473,265.012 92.280,264.793 92.044 C 264.575 91.808,264.450 91.732,264.516 91.876 C 264.582 92.020,264.457 91.944,264.239 91.708 C 264.021 91.472,263.629 91.278,263.369 91.278 C 263.063 91.278,262.842 91.067,262.746 90.682 C 262.663 90.355,262.517 90.099,262.421 90.113 C 261.780 90.212,261.649 90.007,261.649 88.906 C 261.649 87.866,261.712 87.718,262.186 87.651 C 262.512 87.605,262.751 87.383,262.793 87.090 C 262.832 86.823,263.101 86.500,263.391 86.373 C 263.715 86.230,263.948 85.886,263.995 85.480 C 264.037 85.114,264.178 84.885,264.310 84.966 C 264.441 85.047,264.605 84.895,264.675 84.628 C 264.745 84.361,264.960 84.083,265.152 84.009 C 265.345 83.935,265.435 83.766,265.353 83.634 C 265.272 83.501,265.328 83.393,265.479 83.393 C 265.630 83.393,266.224 82.909,266.799 82.318 C 267.373 81.726,267.781 81.243,267.704 81.243 C 267.627 81.243,267.698 81.081,267.861 80.884 C 268.025 80.687,268.401 80.526,268.698 80.526 C 269.255 80.526,269.879 79.995,269.623 79.739 C 269.543 79.659,269.755 79.523,270.095 79.438 C 270.434 79.353,270.775 79.085,270.852 78.842 C 270.929 78.598,271.202 78.333,271.458 78.252 C 271.714 78.170,272.038 77.891,272.177 77.631 C 272.317 77.370,272.693 77.058,273.013 76.936 C 273.334 76.814,273.596 76.550,273.596 76.350 C 273.596 76.103,273.831 75.986,274.324 75.986 C 274.773 75.986,275.255 75.774,275.579 75.435 C 275.868 75.133,276.565 74.751,277.128 74.587 C 277.690 74.424,278.091 74.195,278.020 74.079 C 277.840 73.788,278.174 73.619,279.059 73.552 C 279.471 73.520,279.809 73.404,279.809 73.292 C 279.809 73.181,279.916 73.157,280.048 73.238 C 280.179 73.319,280.287 73.164,280.287 72.893 C 280.287 72.501,280.444 72.398,281.063 72.385 C 282.098 72.362,282.796 72.070,282.796 71.661 C 282.796 71.436,283.141 71.301,283.843 71.251 C 284.944 71.172,286.110 70.587,285.886 70.225 C 285.814 70.108,286.218 70.010,286.784 70.009 C 288.226 70.004,288.826 69.802,288.964 69.273 C 289.066 68.884,289.309 68.817,290.614 68.817 C 291.871 68.817,292.247 68.721,292.721 68.280 C 293.191 67.841,293.669 67.717,295.309 67.606 C 296.974 67.494,297.392 67.383,297.732 66.962 C 298.088 66.522,298.423 66.448,300.207 66.408 C 301.342 66.383,302.270 66.263,302.270 66.142 C 302.270 66.021,302.365 65.981,302.482 66.053 C 302.598 66.124,302.749 65.970,302.818 65.708 C 302.930 65.280,303.147 65.233,305.013 65.233 C 307.050 65.233,307.766 64.989,307.766 64.294 C 307.766 64.127,308.725 64.038,310.536 64.038 C 313.105 64.038,313.315 64.004,313.431 63.560 C 313.542 63.138,313.770 63.079,315.380 63.055 C 317.399 63.024,317.364 63.028,318.459 62.758 C 318.886 62.653,319.235 62.414,319.235 62.227 C 319.235 61.972,319.607 61.883,320.729 61.868 C 323.042 61.837,324.039 61.634,324.731 61.052 C 325.008 60.820,327.086 60.500,328.586 60.458 C 328.669 60.456,328.794 60.239,328.863 59.976 C 328.967 59.576,329.196 59.496,330.264 59.482 C 332.323 59.455,332.955 59.312,333.303 58.793 C 333.576 58.384,333.885 58.303,335.165 58.303 C 336.475 58.303,336.786 58.218,337.285 57.719 C 337.707 57.296,338.183 57.115,339.006 57.062 C 339.918 57.004,340.190 56.883,340.379 56.452 C 340.580 55.993,340.798 55.914,341.859 55.914 C 342.542 55.914,343.170 55.805,343.252 55.671 C 343.335 55.538,343.502 55.490,343.625 55.566 C 343.747 55.641,343.847 55.482,343.847 55.211 C 343.847 54.807,343.998 54.719,344.699 54.719 C 345.715 54.719,346.476 54.358,346.476 53.875 C 346.476 53.614,346.780 53.524,347.670 53.524 C 348.749 53.524,348.865 53.472,348.869 52.987 C 348.872 52.562,348.919 52.523,349.095 52.801 C 349.285 53.102,349.340 53.094,349.475 52.741 C 349.562 52.515,349.828 52.330,350.066 52.330 C 350.815 52.330,351.254 52.056,351.254 51.587 C 351.254 51.212,351.434 51.135,352.304 51.135 C 353.217 51.135,353.372 51.059,353.500 50.552 C 353.617 50.083,353.821 49.954,354.541 49.895 C 355.199 49.840,355.499 49.678,355.672 49.283 C 355.817 48.953,356.117 48.746,356.449 48.746 C 356.830 48.746,356.989 48.605,356.989 48.268 C 356.989 47.932,357.150 47.789,357.527 47.786 C 358.541 47.780,359.177 47.485,359.391 46.921 C 359.519 46.584,359.801 46.356,360.090 46.356 C 360.414 46.356,360.573 46.199,360.573 45.878 C 360.573 45.568,360.733 45.400,361.026 45.400 C 361.275 45.400,361.799 45.101,362.190 44.736 C 362.581 44.370,363.184 43.943,363.530 43.785 C 363.875 43.628,364.158 43.335,364.158 43.135 C 364.158 42.935,364.329 42.772,364.538 42.772 C 364.748 42.772,364.976 42.557,365.044 42.294 C 365.113 42.031,365.370 41.816,365.615 41.816 C 365.891 41.816,366.117 41.589,366.210 41.219 C 366.305 40.842,366.529 40.621,366.817 40.621 C 367.073 40.621,367.394 40.358,367.546 40.024 C 367.696 39.695,367.960 39.427,368.133 39.427 C 368.305 39.427,368.613 39.105,368.816 38.711 C 369.020 38.318,369.316 38.022,369.474 38.054 C 369.632 38.086,369.799 37.870,369.844 37.575 C 369.894 37.243,370.093 37.037,370.364 37.037 C 370.632 37.037,370.895 36.769,371.044 36.343 C 371.177 35.961,371.511 35.577,371.787 35.489 C 372.063 35.402,372.233 35.239,372.164 35.128 C 372.095 35.016,372.201 34.763,372.399 34.564 C 372.598 34.366,372.760 34.082,372.760 33.934 C 372.760 33.785,372.856 33.723,372.974 33.796 C 373.216 33.945,373.477 33.394,373.477 32.733 C 373.477 32.457,373.678 32.263,374.014 32.215 C 374.360 32.166,374.579 31.946,374.628 31.601 C 374.670 31.305,374.847 31.063,375.021 31.063 C 375.418 31.063,375.775 30.343,375.836 29.417 C 375.854 29.147,376.108 28.904,376.464 28.815 C 376.900 28.705,377.061 28.505,377.061 28.072 C 377.061 27.537,377.291 27.359,377.855 27.457 C 377.964 27.476,377.989 27.388,377.911 27.263 C 377.833 27.137,377.859 26.979,377.967 26.912 C 378.076 26.845,378.190 26.306,378.221 25.715 C 378.294 24.299,377.490 23.831,375.947 24.392 " stroke="none" fill="#00b04c" fill-rule="evenodd"></path><path id="path7" d="M357.228 90.744 C 357.228 92.190,357.172 92.385,356.691 92.596 C 356.277 92.777,356.136 93.063,356.080 93.832 C 356.020 94.653,355.913 94.846,355.483 94.907 C 355.159 94.954,354.930 95.178,354.885 95.495 C 354.845 95.778,354.595 96.065,354.330 96.135 C 354.064 96.204,353.789 96.484,353.718 96.756 C 353.647 97.029,353.397 97.252,353.164 97.252 C 352.911 97.252,352.680 97.493,352.590 97.849 C 352.489 98.251,352.275 98.447,351.934 98.447 C 351.656 98.447,351.180 98.716,350.875 99.044 C 350.571 99.373,350.107 99.642,349.846 99.642 C 349.584 99.642,349.229 99.840,349.058 100.083 C 348.886 100.326,348.330 100.602,347.823 100.696 C 347.199 100.812,346.861 101.018,346.779 101.332 C 346.695 101.653,346.371 101.841,345.722 101.945 C 345.174 102.033,344.642 102.299,344.441 102.587 C 344.237 102.878,343.783 103.102,343.327 103.137 C 342.898 103.170,342.394 103.406,342.187 103.671 C 341.869 104.078,340.997 104.377,339.845 104.475 C 339.680 104.489,339.546 104.687,339.546 104.916 C 339.546 105.232,339.266 105.370,338.374 105.493 C 337.500 105.613,337.172 105.771,337.082 106.112 C 336.989 106.469,336.748 106.571,336.000 106.571 C 334.770 106.571,333.811 106.935,333.811 107.401 C 333.811 107.673,333.542 107.766,332.754 107.766 C 331.976 107.766,331.511 107.923,330.987 108.363 C 330.557 108.726,329.979 108.961,329.520 108.961 C 328.614 108.961,327.838 109.335,327.838 109.771 C 327.838 109.986,327.329 110.134,326.242 110.235 C 324.762 110.373,324.117 110.697,324.403 111.159 C 324.467 111.264,324.084 111.350,323.551 111.350 C 322.284 111.350,322.294 111.347,321.787 111.991 C 321.437 112.436,321.120 112.545,320.179 112.545 C 319.193 112.545,318.945 112.639,318.616 113.142 C 318.296 113.630,318.031 113.740,317.169 113.740 C 316.452 113.740,316.070 113.854,315.976 114.098 C 315.901 114.295,315.683 114.456,315.492 114.456 C 315.301 114.456,315.208 114.558,315.285 114.683 C 315.364 114.811,314.880 114.940,314.164 114.981 C 313.123 115.041,312.862 115.148,312.667 115.591 C 312.467 116.048,312.248 116.129,311.206 116.129 C 310.350 116.129,309.801 116.270,309.383 116.599 C 309.055 116.857,308.327 117.142,307.766 117.232 C 307.086 117.341,306.710 117.534,306.637 117.813 C 306.563 118.099,306.188 118.283,305.460 118.392 C 304.855 118.483,304.334 118.706,304.256 118.907 C 304.181 119.103,303.967 119.204,303.780 119.132 C 303.592 119.060,303.505 119.107,303.586 119.238 C 303.666 119.368,303.645 119.485,303.539 119.498 C 303.432 119.511,303.039 119.549,302.665 119.582 C 302.290 119.615,301.902 119.775,301.802 119.937 C 301.701 120.099,301.524 120.250,301.407 120.271 C 301.290 120.293,301.220 120.385,301.250 120.476 C 301.280 120.567,300.820 120.714,300.228 120.803 C 299.534 120.907,299.065 121.125,298.910 121.414 C 298.750 121.712,298.408 121.864,297.894 121.864 C 297.049 121.864,295.967 122.480,296.187 122.836 C 296.263 122.958,296.076 123.059,295.773 123.059 C 295.469 123.059,294.909 123.328,294.527 123.656 C 294.145 123.985,293.582 124.253,293.277 124.253 C 292.891 124.253,292.678 124.427,292.578 124.823 C 292.467 125.267,292.223 125.427,291.474 125.547 C 290.807 125.653,290.477 125.840,290.394 126.158 C 290.328 126.410,290.043 126.649,289.761 126.689 C 289.478 126.729,289.141 127.004,289.011 127.300 C 288.865 127.633,288.567 127.838,288.226 127.838 C 287.570 127.838,286.451 128.521,286.631 128.812 C 286.701 128.926,286.485 129.087,286.151 129.171 C 285.778 129.264,285.544 129.491,285.544 129.758 C 285.544 130.028,285.339 130.223,285.006 130.270 C 284.660 130.319,284.441 130.539,284.392 130.884 C 284.350 131.180,284.203 131.422,284.065 131.422 C 283.745 131.422,281.959 133.199,281.959 133.517 C 281.959 133.648,281.691 133.932,281.362 134.148 C 280.914 134.441,280.765 134.747,280.765 135.370 C 280.765 135.916,280.652 136.201,280.435 136.201 C 279.872 136.201,279.600 136.765,279.541 138.060 C 279.495 139.066,279.377 139.379,278.930 139.671 C 278.053 140.246,278.078 145.635,278.962 146.465 C 279.425 146.901,279.563 147.298,279.619 148.359 C 279.678 149.486,279.776 149.739,280.227 149.937 C 280.527 150.069,280.765 150.385,280.766 150.654 C 280.767 150.937,281.062 151.302,281.483 151.542 C 281.876 151.766,282.198 151.859,282.198 151.748 C 282.198 151.638,282.571 151.371,283.027 151.154 C 283.765 150.805,283.874 150.630,284.013 149.579 C 284.100 148.928,284.258 148.450,284.364 148.516 C 284.471 148.582,284.893 148.150,285.301 147.556 C 285.710 146.962,286.147 146.476,286.272 146.476 C 286.397 146.476,286.499 146.314,286.499 146.117 C 286.499 145.920,286.652 145.759,286.838 145.759 C 287.024 145.759,287.214 145.645,287.260 145.507 C 287.307 145.368,287.557 145.226,287.818 145.190 C 288.078 145.154,288.398 144.891,288.527 144.605 C 288.683 144.262,288.978 144.086,289.396 144.086 C 289.815 144.086,290.068 143.934,290.146 143.634 C 290.227 143.324,290.570 143.130,291.239 143.017 C 291.899 142.906,292.261 142.704,292.360 142.394 C 292.440 142.142,292.713 141.922,292.967 141.906 C 293.221 141.889,293.536 141.849,293.668 141.816 C 293.799 141.783,294.283 141.743,294.743 141.726 C 295.298 141.707,295.579 141.581,295.579 141.352 C 295.579 140.895,295.839 140.757,297.013 140.593 C 297.554 140.517,298.179 140.420,298.401 140.377 C 298.623 140.334,298.892 140.291,298.999 140.281 C 299.105 140.271,299.130 140.163,299.054 140.040 C 298.850 139.709,299.288 139.520,300.546 139.399 C 302.407 139.220,302.628 139.157,302.628 138.806 C 302.628 138.571,302.986 138.452,303.823 138.408 C 305.497 138.321,306.017 138.174,306.505 137.651 C 306.825 137.307,307.311 137.182,308.483 137.141 C 310.191 137.081,310.872 136.845,310.872 136.312 C 310.872 136.044,311.204 135.962,312.290 135.962 C 313.813 135.962,314.901 135.663,315.306 135.132 C 315.473 134.914,316.162 134.783,317.331 134.745 C 318.809 134.697,319.203 134.595,319.705 134.130 C 320.160 133.708,320.597 133.568,321.503 133.554 C 323.335 133.526,324.453 133.134,324.141 132.628 C 324.082 132.533,324.684 132.432,325.477 132.403 C 326.271 132.375,327.207 132.242,327.558 132.109 C 327.909 131.975,328.250 131.874,328.315 131.883 C 328.381 131.892,328.435 131.765,328.435 131.601 C 328.435 131.406,328.890 131.281,329.749 131.240 C 331.415 131.162,332.193 130.986,332.032 130.725 C 331.779 130.317,332.528 130.029,334.050 129.950 C 335.450 129.877,335.611 129.815,335.680 129.331 C 335.746 128.861,335.898 128.793,336.874 128.790 C 338.399 128.786,339.026 128.586,339.196 128.051 C 339.305 127.706,339.567 127.599,340.300 127.599 C 340.963 127.599,341.385 127.452,341.658 127.128 C 341.912 126.827,342.486 126.605,343.250 126.514 C 343.963 126.429,344.595 126.197,344.818 125.938 C 345.023 125.700,345.554 125.426,345.998 125.329 C 346.441 125.231,346.982 124.931,347.200 124.662 C 347.418 124.393,347.788 124.145,348.021 124.110 C 348.772 124.000,349.818 123.487,349.696 123.289 C 349.631 123.184,349.914 123.024,350.326 122.933 C 350.769 122.836,351.122 122.585,351.192 122.316 C 351.265 122.036,351.522 121.864,351.866 121.864 C 352.171 121.864,352.489 121.755,352.571 121.621 C 352.654 121.487,352.829 121.444,352.960 121.526 C 353.091 121.607,353.255 121.456,353.324 121.191 C 353.393 120.926,353.709 120.645,354.025 120.565 C 354.381 120.476,354.600 120.247,354.600 119.964 C 354.600 119.673,354.794 119.480,355.137 119.431 C 355.478 119.383,355.702 119.163,355.749 118.832 C 355.796 118.506,356.021 118.281,356.347 118.235 C 356.673 118.188,356.898 117.963,356.944 117.637 C 356.991 117.311,357.216 117.086,357.542 117.040 C 357.853 116.995,358.093 116.769,358.134 116.480 C 358.172 116.213,358.438 115.891,358.724 115.763 C 359.031 115.627,359.306 115.227,359.394 114.793 C 359.475 114.387,359.774 113.822,360.058 113.539 C 360.341 113.255,360.573 112.808,360.573 112.545 C 360.573 112.282,360.657 112.067,360.758 112.067 C 361.089 112.067,361.751 110.536,361.820 109.613 C 361.857 109.117,361.978 108.741,362.087 108.776 C 362.671 108.966,362.963 107.119,362.963 103.228 C 362.963 98.649,362.839 97.715,362.210 97.551 C 361.844 97.455,361.768 97.196,361.768 96.041 C 361.768 94.479,361.394 93.404,360.915 93.588 C 360.720 93.663,360.611 93.542,360.629 93.270 C 360.714 91.973,360.050 90.175,359.591 90.459 C 359.474 90.531,359.379 90.261,359.379 89.859 C 359.379 89.152,359.344 89.128,358.303 89.128 L 357.228 89.128 357.228 90.744 " stroke="none" fill="#6dbe45" fill-rule="evenodd"></path><path id="path8" d="" stroke="none" fill="#46d117" fill-rule="evenodd"></path><path id="path9" d="M351.364 51.390 C 351.278 51.530,351.264 51.702,351.334 51.772 C 351.505 51.943,351.971 51.642,351.971 51.360 C 351.971 51.054,351.559 51.075,351.364 51.390 " stroke="none" fill="#00ff00" fill-rule="evenodd"></path></g></svg>